<mxfile host="app.diagrams.net" agent="Mozilla/5.0 (Windows NT 10.0; Win64; x64) AppleWebKit/537.36 (KHTML, like Gecko) Chrome/135.0.0.0 Safari/537.36 OPR/120.0.0.0" version="28.0.6">
  <diagram id="C5RBs43oDa-KdzZeNtuy" name="Page-1">
    <mxGraphModel dx="6854" dy="2640" grid="1" gridSize="10" guides="1" tooltips="1" connect="1" arrows="1" fold="1" page="1" pageScale="1" pageWidth="827" pageHeight="1169" math="0" shadow="0">
      <root>
        <mxCell id="WIyWlLk6GJQsqaUBKTNV-0" />
        <mxCell id="WIyWlLk6GJQsqaUBKTNV-1" parent="WIyWlLk6GJQsqaUBKTNV-0" />
        <mxCell id="M7CGMbNuYNeq0SnUNNgH-6" value="ทบทวนสัญลักษณ์" style="swimlane;fontFamily=Sarabun;fontSource=https%3A%2F%2Ffonts.googleapis.com%2Fcss%3Ffamily%3DSarabun;" parent="WIyWlLk6GJQsqaUBKTNV-1" vertex="1">
          <mxGeometry x="-720" y="20" width="640" height="290" as="geometry" />
        </mxCell>
        <mxCell id="M7CGMbNuYNeq0SnUNNgH-2" value="&lt;font data-font-src=&quot;https://fonts.googleapis.com/css?family=Sarabun&quot; face=&quot;Sarabun&quot;&gt;เริ่มต้น&lt;/font&gt;" style="ellipse;whiteSpace=wrap;html=1;" parent="M7CGMbNuYNeq0SnUNNgH-6" vertex="1">
          <mxGeometry x="20" y="40" width="130" height="30" as="geometry" />
        </mxCell>
        <mxCell id="M7CGMbNuYNeq0SnUNNgH-5" value="" style="endArrow=classic;html=1;rounded=0;" parent="M7CGMbNuYNeq0SnUNNgH-6" edge="1">
          <mxGeometry width="50" height="50" relative="1" as="geometry">
            <mxPoint x="84.5" y="70" as="sourcePoint" />
            <mxPoint x="84.5" y="120" as="targetPoint" />
          </mxGeometry>
        </mxCell>
        <mxCell id="M7CGMbNuYNeq0SnUNNgH-3" value="&lt;font face=&quot;Sarabun&quot;&gt;สิ้นสุด&lt;/font&gt;" style="ellipse;whiteSpace=wrap;html=1;" parent="M7CGMbNuYNeq0SnUNNgH-6" vertex="1">
          <mxGeometry x="150" y="90" width="130" height="30" as="geometry" />
        </mxCell>
        <mxCell id="M7CGMbNuYNeq0SnUNNgH-4" value="" style="endArrow=classic;html=1;rounded=0;" parent="M7CGMbNuYNeq0SnUNNgH-6" edge="1">
          <mxGeometry width="50" height="50" relative="1" as="geometry">
            <mxPoint x="214.5" y="40" as="sourcePoint" />
            <mxPoint x="214.5" y="90" as="targetPoint" />
          </mxGeometry>
        </mxCell>
        <mxCell id="mvioNwK95yMqdUQ73LqQ-0" value="กระบวนการ" style="rounded=0;whiteSpace=wrap;html=1;fontFamily=Sarabun;fontSource=https%3A%2F%2Ffonts.googleapis.com%2Fcss%3Ffamily%3DSarabun;" parent="M7CGMbNuYNeq0SnUNNgH-6" vertex="1">
          <mxGeometry x="320" y="70" width="120" height="30" as="geometry" />
        </mxCell>
        <mxCell id="mvioNwK95yMqdUQ73LqQ-1" value="" style="endArrow=classic;html=1;rounded=0;" parent="M7CGMbNuYNeq0SnUNNgH-6" edge="1">
          <mxGeometry width="50" height="50" relative="1" as="geometry">
            <mxPoint x="379" y="40" as="sourcePoint" />
            <mxPoint x="379.5" y="70" as="targetPoint" />
          </mxGeometry>
        </mxCell>
        <mxCell id="mvioNwK95yMqdUQ73LqQ-2" value="" style="endArrow=classic;html=1;rounded=0;" parent="M7CGMbNuYNeq0SnUNNgH-6" edge="1">
          <mxGeometry width="50" height="50" relative="1" as="geometry">
            <mxPoint x="379.75" y="100" as="sourcePoint" />
            <mxPoint x="380.25" y="130" as="targetPoint" />
          </mxGeometry>
        </mxCell>
        <mxCell id="mvioNwK95yMqdUQ73LqQ-3" value="ประโยคเงื่อนไข" style="rhombus;whiteSpace=wrap;html=1;fontFamily=Sarabun;fontSource=https%3A%2F%2Ffonts.googleapis.com%2Fcss%3Ffamily%3DSarabun;" parent="M7CGMbNuYNeq0SnUNNgH-6" vertex="1">
          <mxGeometry x="490" y="60" width="100" height="60" as="geometry" />
        </mxCell>
        <mxCell id="mvioNwK95yMqdUQ73LqQ-4" value="" style="endArrow=classic;html=1;rounded=0;" parent="M7CGMbNuYNeq0SnUNNgH-6" edge="1">
          <mxGeometry width="50" height="50" relative="1" as="geometry">
            <mxPoint x="539.71" y="30" as="sourcePoint" />
            <mxPoint x="540.21" y="60" as="targetPoint" />
          </mxGeometry>
        </mxCell>
        <mxCell id="mvioNwK95yMqdUQ73LqQ-5" value="" style="endArrow=classic;html=1;rounded=0;" parent="M7CGMbNuYNeq0SnUNNgH-6" edge="1">
          <mxGeometry width="50" height="50" relative="1" as="geometry">
            <mxPoint x="539.71" y="120" as="sourcePoint" />
            <mxPoint x="540" y="175" as="targetPoint" />
          </mxGeometry>
        </mxCell>
        <mxCell id="mvioNwK95yMqdUQ73LqQ-7" value="จริง" style="edgeLabel;html=1;align=center;verticalAlign=middle;resizable=0;points=[];fontFamily=Sarabun;fontSource=https%3A%2F%2Ffonts.googleapis.com%2Fcss%3Ffamily%3DSarabun;" parent="mvioNwK95yMqdUQ73LqQ-5" vertex="1" connectable="0">
          <mxGeometry x="-0.4142" y="-1" relative="1" as="geometry">
            <mxPoint as="offset" />
          </mxGeometry>
        </mxCell>
        <mxCell id="mvioNwK95yMqdUQ73LqQ-6" value="" style="endArrow=classic;html=1;rounded=0;exitX=1;exitY=0.5;exitDx=0;exitDy=0;" parent="M7CGMbNuYNeq0SnUNNgH-6" source="mvioNwK95yMqdUQ73LqQ-3" edge="1">
          <mxGeometry width="50" height="50" relative="1" as="geometry">
            <mxPoint x="620" y="95" as="sourcePoint" />
            <mxPoint x="610" y="175" as="targetPoint" />
            <Array as="points">
              <mxPoint x="610" y="90" />
            </Array>
          </mxGeometry>
        </mxCell>
        <mxCell id="mvioNwK95yMqdUQ73LqQ-8" value="&lt;font data-font-src=&quot;https://fonts.googleapis.com/css?family=Sarabun&quot; face=&quot;Sarabun&quot;&gt;เท็จ&lt;/font&gt;" style="edgeLabel;html=1;align=center;verticalAlign=middle;resizable=0;points=[];" parent="mvioNwK95yMqdUQ73LqQ-6" vertex="1" connectable="0">
          <mxGeometry x="-0.0019" y="-2" relative="1" as="geometry">
            <mxPoint as="offset" />
          </mxGeometry>
        </mxCell>
        <mxCell id="mvioNwK95yMqdUQ73LqQ-9" value="&lt;font data-font-src=&quot;https://fonts.googleapis.com/css?family=Sarabun&quot; face=&quot;Sarabun&quot;&gt;ฟังก์ชัน/โมดูล&lt;/font&gt;" style="shape=process;whiteSpace=wrap;html=1;backgroundOutline=1;" parent="M7CGMbNuYNeq0SnUNNgH-6" vertex="1">
          <mxGeometry x="25" y="180" width="120" height="30" as="geometry" />
        </mxCell>
        <mxCell id="mvioNwK95yMqdUQ73LqQ-11" value="" style="endArrow=classic;html=1;rounded=0;" parent="M7CGMbNuYNeq0SnUNNgH-6" edge="1">
          <mxGeometry width="50" height="50" relative="1" as="geometry">
            <mxPoint x="84.70999999999998" y="150" as="sourcePoint" />
            <mxPoint x="85.20999999999998" y="180" as="targetPoint" />
          </mxGeometry>
        </mxCell>
        <mxCell id="mvioNwK95yMqdUQ73LqQ-12" value="" style="endArrow=classic;html=1;rounded=0;" parent="M7CGMbNuYNeq0SnUNNgH-6" edge="1">
          <mxGeometry width="50" height="50" relative="1" as="geometry">
            <mxPoint x="84.70999999999998" y="210" as="sourcePoint" />
            <mxPoint x="85.20999999999998" y="240" as="targetPoint" />
          </mxGeometry>
        </mxCell>
        <mxCell id="mvioNwK95yMqdUQ73LqQ-13" value="" style="strokeWidth=2;html=1;shape=mxgraph.flowchart.start_2;whiteSpace=wrap;" parent="M7CGMbNuYNeq0SnUNNgH-6" vertex="1">
          <mxGeometry x="205" y="185" width="20" height="20" as="geometry" />
        </mxCell>
        <mxCell id="mvioNwK95yMqdUQ73LqQ-16" value="" style="endArrow=classic;html=1;rounded=0;" parent="M7CGMbNuYNeq0SnUNNgH-6" edge="1">
          <mxGeometry width="50" height="50" relative="1" as="geometry">
            <mxPoint x="214.70999999999998" y="155" as="sourcePoint" />
            <mxPoint x="215.20999999999998" y="185" as="targetPoint" />
          </mxGeometry>
        </mxCell>
        <mxCell id="mvioNwK95yMqdUQ73LqQ-17" value="" style="endArrow=classic;html=1;rounded=0;entryX=0;entryY=0.5;entryDx=0;entryDy=0;entryPerimeter=0;" parent="M7CGMbNuYNeq0SnUNNgH-6" target="mvioNwK95yMqdUQ73LqQ-13" edge="1">
          <mxGeometry width="50" height="50" relative="1" as="geometry">
            <mxPoint x="189.99999999999997" y="155" as="sourcePoint" />
            <mxPoint x="190.49999999999997" y="185" as="targetPoint" />
            <Array as="points">
              <mxPoint x="190" y="180" />
            </Array>
          </mxGeometry>
        </mxCell>
        <mxCell id="mvioNwK95yMqdUQ73LqQ-18" value="" style="endArrow=classic;html=1;rounded=0;entryX=1;entryY=0.5;entryDx=0;entryDy=0;entryPerimeter=0;" parent="M7CGMbNuYNeq0SnUNNgH-6" target="mvioNwK95yMqdUQ73LqQ-13" edge="1">
          <mxGeometry width="50" height="50" relative="1" as="geometry">
            <mxPoint x="239.99999999999997" y="155" as="sourcePoint" />
            <mxPoint x="240.49999999999997" y="185" as="targetPoint" />
            <Array as="points">
              <mxPoint x="240" y="180" />
            </Array>
          </mxGeometry>
        </mxCell>
        <mxCell id="mvioNwK95yMqdUQ73LqQ-19" value="" style="endArrow=classic;html=1;rounded=0;" parent="M7CGMbNuYNeq0SnUNNgH-6" edge="1">
          <mxGeometry width="50" height="50" relative="1" as="geometry">
            <mxPoint x="214.70999999999998" y="205" as="sourcePoint" />
            <mxPoint x="215.20999999999998" y="235" as="targetPoint" />
          </mxGeometry>
        </mxCell>
        <mxCell id="mvioNwK95yMqdUQ73LqQ-20" value="&lt;font data-font-src=&quot;https://fonts.googleapis.com/css?family=Sarabun&quot; face=&quot;Sarabun&quot;&gt;ตัวเชื่อม&lt;/font&gt;" style="text;html=1;align=center;verticalAlign=middle;resizable=0;points=[];autosize=1;strokeColor=none;fillColor=none;" parent="M7CGMbNuYNeq0SnUNNgH-6" vertex="1">
          <mxGeometry x="220" y="190" width="60" height="30" as="geometry" />
        </mxCell>
        <mxCell id="mvioNwK95yMqdUQ73LqQ-25" value="" style="endArrow=classic;html=1;rounded=0;" parent="M7CGMbNuYNeq0SnUNNgH-6" edge="1">
          <mxGeometry width="50" height="50" relative="1" as="geometry">
            <mxPoint x="353.71" y="165" as="sourcePoint" />
            <mxPoint x="354.21" y="195" as="targetPoint" />
          </mxGeometry>
        </mxCell>
        <mxCell id="mvioNwK95yMqdUQ73LqQ-21" value="" style="verticalLabelPosition=bottom;verticalAlign=top;html=1;shape=offPageConnector;rounded=0;size=0.5;" parent="M7CGMbNuYNeq0SnUNNgH-6" vertex="1">
          <mxGeometry x="339" y="195" width="30" height="30" as="geometry" />
        </mxCell>
        <mxCell id="mvioNwK95yMqdUQ73LqQ-26" value="" style="endArrow=classic;html=1;rounded=0;" parent="M7CGMbNuYNeq0SnUNNgH-6" edge="1">
          <mxGeometry width="50" height="50" relative="1" as="geometry">
            <mxPoint x="405.71" y="195" as="sourcePoint" />
            <mxPoint x="406.21" y="225" as="targetPoint" />
          </mxGeometry>
        </mxCell>
        <mxCell id="mvioNwK95yMqdUQ73LqQ-27" value="" style="verticalLabelPosition=bottom;verticalAlign=top;html=1;shape=offPageConnector;rounded=0;size=0.5;" parent="M7CGMbNuYNeq0SnUNNgH-6" vertex="1">
          <mxGeometry x="391" y="165" width="30" height="30" as="geometry" />
        </mxCell>
        <mxCell id="mvioNwK95yMqdUQ73LqQ-28" value="หน้าต่อไป" style="text;html=1;align=center;verticalAlign=middle;resizable=0;points=[];autosize=1;strokeColor=none;fillColor=none;fontFamily=Sarabun;fontSource=https%3A%2F%2Ffonts.googleapis.com%2Fcss%3Ffamily%3DSarabun;" parent="M7CGMbNuYNeq0SnUNNgH-6" vertex="1">
          <mxGeometry x="345" y="220" width="70" height="30" as="geometry" />
        </mxCell>
        <mxCell id="mvioNwK95yMqdUQ73LqQ-29" value="ก" style="text;html=1;align=center;verticalAlign=middle;resizable=0;points=[];autosize=1;strokeColor=none;fillColor=none;fontFamily=Sarabun;fontSource=https%3A%2F%2Ffonts.googleapis.com%2Fcss%3Ffamily%3DSarabun;" parent="M7CGMbNuYNeq0SnUNNgH-6" vertex="1">
          <mxGeometry x="339" y="190" width="30" height="30" as="geometry" />
        </mxCell>
        <mxCell id="mvioNwK95yMqdUQ73LqQ-30" value="ก" style="text;html=1;align=center;verticalAlign=middle;resizable=0;points=[];autosize=1;strokeColor=none;fillColor=none;fontFamily=Sarabun;fontSource=https%3A%2F%2Ffonts.googleapis.com%2Fcss%3Ffamily%3DSarabun;" parent="M7CGMbNuYNeq0SnUNNgH-6" vertex="1">
          <mxGeometry x="391" y="160" width="30" height="30" as="geometry" />
        </mxCell>
        <mxCell id="mvioNwK95yMqdUQ73LqQ-32" value="แสดงผล/รับค่า" style="shape=parallelogram;perimeter=parallelogramPerimeter;whiteSpace=wrap;html=1;fixedSize=1;fontFamily=Sarabun;fontSource=https%3A%2F%2Ffonts.googleapis.com%2Fcss%3Ffamily%3DSarabun;" parent="M7CGMbNuYNeq0SnUNNgH-6" vertex="1">
          <mxGeometry x="450" y="210" width="120" height="30" as="geometry" />
        </mxCell>
        <mxCell id="mvioNwK95yMqdUQ73LqQ-33" value="" style="endArrow=classic;html=1;rounded=0;" parent="M7CGMbNuYNeq0SnUNNgH-6" edge="1">
          <mxGeometry width="50" height="50" relative="1" as="geometry">
            <mxPoint x="509.71" y="180" as="sourcePoint" />
            <mxPoint x="510.21" y="210" as="targetPoint" />
          </mxGeometry>
        </mxCell>
        <mxCell id="mvioNwK95yMqdUQ73LqQ-34" value="" style="endArrow=classic;html=1;rounded=0;" parent="M7CGMbNuYNeq0SnUNNgH-6" edge="1">
          <mxGeometry width="50" height="50" relative="1" as="geometry">
            <mxPoint x="509.71" y="240" as="sourcePoint" />
            <mxPoint x="510.21" y="270" as="targetPoint" />
          </mxGeometry>
        </mxCell>
        <mxCell id="mvioNwK95yMqdUQ73LqQ-36" value="แก้ไขโจทย์ปัญหา" style="swimlane;fontFamily=Sarabun;fontSource=https%3A%2F%2Ffonts.googleapis.com%2Fcss%3Ffamily%3DSarabun;" parent="WIyWlLk6GJQsqaUBKTNV-1" vertex="1">
          <mxGeometry x="-854" y="600" width="1010" height="1080" as="geometry" />
        </mxCell>
        <mxCell id="lKXdoufizGsUkh9-Anli-4" style="edgeStyle=orthogonalEdgeStyle;rounded=0;orthogonalLoop=1;jettySize=auto;html=1;entryX=0.5;entryY=0;entryDx=0;entryDy=0;" parent="mvioNwK95yMqdUQ73LqQ-36" source="lKXdoufizGsUkh9-Anli-38" target="lKXdoufizGsUkh9-Anli-5" edge="1">
          <mxGeometry relative="1" as="geometry" />
        </mxCell>
        <mxCell id="mvioNwK95yMqdUQ73LqQ-35" value="&lt;font data-font-src=&quot;https://fonts.googleapis.com/css?family=Sarabun&quot; face=&quot;Sarabun&quot;&gt;เริ่มต้น&lt;/font&gt;" style="ellipse;whiteSpace=wrap;html=1;" parent="mvioNwK95yMqdUQ73LqQ-36" vertex="1">
          <mxGeometry x="372.44" y="30" width="130" height="30" as="geometry" />
        </mxCell>
        <mxCell id="mvioNwK95yMqdUQ73LqQ-69" value="&lt;font face=&quot;Sarabun&quot;&gt;สิ้นสุด&lt;/font&gt;" style="ellipse;whiteSpace=wrap;html=1;" parent="mvioNwK95yMqdUQ73LqQ-36" vertex="1">
          <mxGeometry x="372.44" y="1010" width="130" height="30" as="geometry" />
        </mxCell>
        <mxCell id="lKXdoufizGsUkh9-Anli-152" style="edgeStyle=orthogonalEdgeStyle;rounded=0;orthogonalLoop=1;jettySize=auto;html=1;exitX=0.5;exitY=1;exitDx=0;exitDy=0;" parent="mvioNwK95yMqdUQ73LqQ-36" source="lKXdoufizGsUkh9-Anli-220" target="lKXdoufizGsUkh9-Anli-151" edge="1">
          <mxGeometry relative="1" as="geometry">
            <mxPoint x="427.43999999999954" y="714.9999999999993" as="sourcePoint" />
          </mxGeometry>
        </mxCell>
        <mxCell id="lKXdoufizGsUkh9-Anli-224" value="ไม่ต้องการยกเลิก(F)" style="edgeLabel;html=1;align=center;verticalAlign=middle;resizable=0;points=[];" parent="lKXdoufizGsUkh9-Anli-152" vertex="1" connectable="0">
          <mxGeometry x="-0.0327" y="-1" relative="1" as="geometry">
            <mxPoint as="offset" />
          </mxGeometry>
        </mxCell>
        <mxCell id="lKXdoufizGsUkh9-Anli-3" value="&lt;font data-font-src=&quot;https://fonts.googleapis.com/css?family=Sarabun&quot; face=&quot;Sarabun&quot;&gt;ฟังก์ชันซื้อ&lt;/font&gt;&lt;span style=&quot;font-family: Sarabun;&quot;&gt;สินค้า&lt;/span&gt;" style="shape=process;whiteSpace=wrap;html=1;backgroundOutline=1;fillColor=#0050ef;fontColor=#ffffff;strokeColor=#001DBC;" parent="mvioNwK95yMqdUQ73LqQ-36" vertex="1">
          <mxGeometry x="339.94" y="500" width="195" height="30" as="geometry" />
        </mxCell>
        <mxCell id="lKXdoufizGsUkh9-Anli-5" value="เเสดงกด Login เพื่อใช้งาน" style="shape=parallelogram;perimeter=parallelogramPerimeter;whiteSpace=wrap;html=1;fixedSize=1;fontFamily=Sarabun;fontSource=https%3A%2F%2Ffonts.googleapis.com%2Fcss%3Ffamily%3DSarabun;" parent="mvioNwK95yMqdUQ73LqQ-36" vertex="1">
          <mxGeometry x="358.94" y="170" width="157" height="30" as="geometry" />
        </mxCell>
        <mxCell id="lKXdoufizGsUkh9-Anli-33" style="edgeStyle=orthogonalEdgeStyle;rounded=0;orthogonalLoop=1;jettySize=auto;html=1;entryX=0.5;entryY=0;entryDx=0;entryDy=0;" parent="mvioNwK95yMqdUQ73LqQ-36" source="lKXdoufizGsUkh9-Anli-30" target="lKXdoufizGsUkh9-Anli-3" edge="1">
          <mxGeometry relative="1" as="geometry" />
        </mxCell>
        <mxCell id="lKXdoufizGsUkh9-Anli-30" value="เเสดงรายการสินค้า" style="shape=parallelogram;perimeter=parallelogramPerimeter;whiteSpace=wrap;html=1;fixedSize=1;fontFamily=Sarabun;fontSource=https%3A%2F%2Ffonts.googleapis.com%2Fcss%3Ffamily%3DSarabun;" parent="mvioNwK95yMqdUQ73LqQ-36" vertex="1">
          <mxGeometry x="358.94" y="440" width="157" height="30" as="geometry" />
        </mxCell>
        <mxCell id="lKXdoufizGsUkh9-Anli-37" style="edgeStyle=orthogonalEdgeStyle;rounded=0;orthogonalLoop=1;jettySize=auto;html=1;entryX=1;entryY=0.5;entryDx=0;entryDy=0;" parent="mvioNwK95yMqdUQ73LqQ-36" source="Yg89CHvpsKPFk7mEYiGE-67" target="lKXdoufizGsUkh9-Anli-38" edge="1">
          <mxGeometry relative="1" as="geometry">
            <mxPoint x="489.94" y="120" as="targetPoint" />
            <Array as="points">
              <mxPoint x="571.94" y="115" />
            </Array>
          </mxGeometry>
        </mxCell>
        <mxCell id="Yg89CHvpsKPFk7mEYiGE-57" style="edgeStyle=orthogonalEdgeStyle;rounded=0;orthogonalLoop=1;jettySize=auto;html=1;entryX=0.5;entryY=0;entryDx=0;entryDy=0;" edge="1" parent="mvioNwK95yMqdUQ73LqQ-36" source="lKXdoufizGsUkh9-Anli-34" target="Yg89CHvpsKPFk7mEYiGE-54">
          <mxGeometry relative="1" as="geometry" />
        </mxCell>
        <mxCell id="Yg89CHvpsKPFk7mEYiGE-58" value="เข้าใช้งานสำเร็จ(T)" style="edgeLabel;html=1;align=center;verticalAlign=middle;resizable=0;points=[];" vertex="1" connectable="0" parent="Yg89CHvpsKPFk7mEYiGE-57">
          <mxGeometry x="-0.1981" y="1" relative="1" as="geometry">
            <mxPoint as="offset" />
          </mxGeometry>
        </mxCell>
        <mxCell id="lKXdoufizGsUkh9-Anli-34" value="Login สำเร็จ?" style="rhombus;whiteSpace=wrap;html=1;fontFamily=Sarabun;fontSource=https%3A%2F%2Ffonts.googleapis.com%2Fcss%3Ffamily%3DSarabun;" parent="mvioNwK95yMqdUQ73LqQ-36" vertex="1">
          <mxGeometry x="387.44" y="230" width="100" height="60" as="geometry" />
        </mxCell>
        <mxCell id="lKXdoufizGsUkh9-Anli-35" value="" style="edgeStyle=orthogonalEdgeStyle;rounded=0;orthogonalLoop=1;jettySize=auto;html=1;entryX=0.5;entryY=0;entryDx=0;entryDy=0;" parent="mvioNwK95yMqdUQ73LqQ-36" source="lKXdoufizGsUkh9-Anli-5" target="lKXdoufizGsUkh9-Anli-34" edge="1">
          <mxGeometry relative="1" as="geometry">
            <mxPoint x="-951.56" y="860" as="sourcePoint" />
            <mxPoint x="-951.56" y="960" as="targetPoint" />
          </mxGeometry>
        </mxCell>
        <mxCell id="lKXdoufizGsUkh9-Anli-39" value="" style="edgeStyle=orthogonalEdgeStyle;rounded=0;orthogonalLoop=1;jettySize=auto;html=1;entryX=0.5;entryY=0;entryDx=0;entryDy=0;" parent="mvioNwK95yMqdUQ73LqQ-36" source="mvioNwK95yMqdUQ73LqQ-35" target="lKXdoufizGsUkh9-Anli-38" edge="1">
          <mxGeometry relative="1" as="geometry">
            <mxPoint x="-951.56" y="720" as="sourcePoint" />
            <mxPoint x="-951.56" y="830" as="targetPoint" />
          </mxGeometry>
        </mxCell>
        <mxCell id="lKXdoufizGsUkh9-Anli-38" value="" style="ellipse;whiteSpace=wrap;html=1;aspect=fixed;" parent="mvioNwK95yMqdUQ73LqQ-36" vertex="1">
          <mxGeometry x="422.44" y="100" width="30" height="30" as="geometry" />
        </mxCell>
        <mxCell id="lKXdoufizGsUkh9-Anli-261" style="edgeStyle=orthogonalEdgeStyle;rounded=0;orthogonalLoop=1;jettySize=auto;html=1;entryX=0.5;entryY=0;entryDx=0;entryDy=0;" parent="mvioNwK95yMqdUQ73LqQ-36" source="lKXdoufizGsUkh9-Anli-151" target="lKXdoufizGsUkh9-Anli-260" edge="1">
          <mxGeometry relative="1" as="geometry" />
        </mxCell>
        <mxCell id="lKXdoufizGsUkh9-Anli-151" value="&lt;font data-font-src=&quot;https://fonts.googleapis.com/css?family=Sarabun&quot; face=&quot;Sarabun&quot;&gt;ฟังก์ชันการจ่ายเงิน&lt;/font&gt;" style="shape=process;whiteSpace=wrap;html=1;backgroundOutline=1;fillColor=#fa6800;fontColor=#000000;strokeColor=#C73500;" parent="mvioNwK95yMqdUQ73LqQ-36" vertex="1">
          <mxGeometry x="339.94" y="729" width="195" height="30" as="geometry" />
        </mxCell>
        <mxCell id="lKXdoufizGsUkh9-Anli-226" style="edgeStyle=orthogonalEdgeStyle;rounded=0;orthogonalLoop=1;jettySize=auto;html=1;entryX=0;entryY=0.5;entryDx=0;entryDy=0;" parent="mvioNwK95yMqdUQ73LqQ-36" source="lKXdoufizGsUkh9-Anli-220" target="lKXdoufizGsUkh9-Anli-38" edge="1">
          <mxGeometry relative="1" as="geometry">
            <Array as="points">
              <mxPoint x="280" y="650" />
              <mxPoint x="280" y="115" />
            </Array>
          </mxGeometry>
        </mxCell>
        <mxCell id="lKXdoufizGsUkh9-Anli-227" value="ต้องการยกเลิก(T)" style="edgeLabel;html=1;align=center;verticalAlign=middle;resizable=0;points=[];" parent="lKXdoufizGsUkh9-Anli-226" vertex="1" connectable="0">
          <mxGeometry x="-0.7642" relative="1" as="geometry">
            <mxPoint x="15" as="offset" />
          </mxGeometry>
        </mxCell>
        <mxCell id="lKXdoufizGsUkh9-Anli-220" value="ต้องการยกเลิก?" style="rhombus;whiteSpace=wrap;html=1;fontFamily=Sarabun;fontSource=https%3A%2F%2Ffonts.googleapis.com%2Fcss%3Ffamily%3DSarabun;" parent="mvioNwK95yMqdUQ73LqQ-36" vertex="1">
          <mxGeometry x="387.44" y="620" width="100" height="60" as="geometry" />
        </mxCell>
        <mxCell id="lKXdoufizGsUkh9-Anli-223" value="" style="edgeStyle=orthogonalEdgeStyle;rounded=0;orthogonalLoop=1;jettySize=auto;html=1;entryX=0.5;entryY=0;entryDx=0;entryDy=0;" parent="mvioNwK95yMqdUQ73LqQ-36" source="Yg89CHvpsKPFk7mEYiGE-76" target="lKXdoufizGsUkh9-Anli-220" edge="1">
          <mxGeometry relative="1" as="geometry">
            <mxPoint x="-532.06" y="1140" as="sourcePoint" />
            <mxPoint x="427.43999999999954" y="575.0000000000005" as="targetPoint" />
          </mxGeometry>
        </mxCell>
        <mxCell id="Yg89CHvpsKPFk7mEYiGE-136" style="edgeStyle=orthogonalEdgeStyle;rounded=0;orthogonalLoop=1;jettySize=auto;html=1;entryX=0.5;entryY=0;entryDx=0;entryDy=0;" edge="1" parent="mvioNwK95yMqdUQ73LqQ-36" source="lKXdoufizGsUkh9-Anli-260" target="Yg89CHvpsKPFk7mEYiGE-104">
          <mxGeometry relative="1" as="geometry" />
        </mxCell>
        <mxCell id="lKXdoufizGsUkh9-Anli-260" value="จ่ายสินค้า" style="rounded=0;whiteSpace=wrap;html=1;fontFamily=Sarabun;fontSource=https%3A%2F%2Ffonts.googleapis.com%2Fcss%3Ffamily%3DSarabun;" parent="mvioNwK95yMqdUQ73LqQ-36" vertex="1">
          <mxGeometry x="377.44" y="790" width="120" height="30" as="geometry" />
        </mxCell>
        <mxCell id="Yg89CHvpsKPFk7mEYiGE-63" style="edgeStyle=orthogonalEdgeStyle;rounded=0;orthogonalLoop=1;jettySize=auto;html=1;entryX=0.5;entryY=0;entryDx=0;entryDy=0;" edge="1" parent="mvioNwK95yMqdUQ73LqQ-36" source="Yg89CHvpsKPFk7mEYiGE-25" target="Yg89CHvpsKPFk7mEYiGE-53">
          <mxGeometry relative="1" as="geometry" />
        </mxCell>
        <mxCell id="Yg89CHvpsKPFk7mEYiGE-25" value="เเสดงกด Admin เพื่อเติมสต็อก" style="shape=parallelogram;perimeter=parallelogramPerimeter;whiteSpace=wrap;html=1;fixedSize=1;fontFamily=Sarabun;fontSource=https%3A%2F%2Ffonts.googleapis.com%2Fcss%3Ffamily%3DSarabun;" vertex="1" parent="mvioNwK95yMqdUQ73LqQ-36">
          <mxGeometry x="658" y="340" width="196" height="40" as="geometry" />
        </mxCell>
        <mxCell id="Yg89CHvpsKPFk7mEYiGE-172" style="edgeStyle=orthogonalEdgeStyle;rounded=0;orthogonalLoop=1;jettySize=auto;html=1;entryX=1;entryY=0.5;entryDx=0;entryDy=0;" edge="1" parent="mvioNwK95yMqdUQ73LqQ-36" source="Yg89CHvpsKPFk7mEYiGE-52" target="Yg89CHvpsKPFk7mEYiGE-169">
          <mxGeometry relative="1" as="geometry">
            <mxPoint x="554" y="901.4285714285713" as="targetPoint" />
            <Array as="points">
              <mxPoint x="756" y="954" />
            </Array>
          </mxGeometry>
        </mxCell>
        <mxCell id="Yg89CHvpsKPFk7mEYiGE-52" value="&lt;span style=&quot;font-family: Sarabun; font-weight: 700; text-wrap-mode: nowrap;&quot;&gt;ฟังก์ชันเติมสต็อกเเละเติมเหรียญ/ธนบัตรในเครื่อง(เฉพาะพนักงาน)&lt;/span&gt;" style="shape=process;whiteSpace=wrap;html=1;backgroundOutline=1;fillColor=#008a00;fontColor=#ffffff;strokeColor=#005700;" vertex="1" parent="mvioNwK95yMqdUQ73LqQ-36">
          <mxGeometry x="580" y="580" width="352" height="30" as="geometry" />
        </mxCell>
        <mxCell id="Yg89CHvpsKPFk7mEYiGE-64" style="edgeStyle=orthogonalEdgeStyle;rounded=0;orthogonalLoop=1;jettySize=auto;html=1;" edge="1" parent="mvioNwK95yMqdUQ73LqQ-36" source="Yg89CHvpsKPFk7mEYiGE-53" target="Yg89CHvpsKPFk7mEYiGE-65">
          <mxGeometry relative="1" as="geometry" />
        </mxCell>
        <mxCell id="Yg89CHvpsKPFk7mEYiGE-53" value="ใส่รหัสผ่าน&amp;nbsp; Admin" style="rounded=0;whiteSpace=wrap;html=1;fontFamily=Sarabun;fontSource=https%3A%2F%2Ffonts.googleapis.com%2Fcss%3Ffamily%3DSarabun;" vertex="1" parent="mvioNwK95yMqdUQ73LqQ-36">
          <mxGeometry x="695.5" y="410" width="120" height="30" as="geometry" />
        </mxCell>
        <mxCell id="Yg89CHvpsKPFk7mEYiGE-59" style="edgeStyle=orthogonalEdgeStyle;rounded=0;orthogonalLoop=1;jettySize=auto;html=1;entryX=0.5;entryY=0;entryDx=0;entryDy=0;" edge="1" parent="mvioNwK95yMqdUQ73LqQ-36" source="Yg89CHvpsKPFk7mEYiGE-54" target="lKXdoufizGsUkh9-Anli-30">
          <mxGeometry relative="1" as="geometry" />
        </mxCell>
        <mxCell id="Yg89CHvpsKPFk7mEYiGE-60" value="ไม่ต้องการเข้า Mode Admin(F)" style="edgeLabel;html=1;align=center;verticalAlign=middle;resizable=0;points=[];" vertex="1" connectable="0" parent="Yg89CHvpsKPFk7mEYiGE-59">
          <mxGeometry x="-0.2755" y="-1" relative="1" as="geometry">
            <mxPoint as="offset" />
          </mxGeometry>
        </mxCell>
        <mxCell id="Yg89CHvpsKPFk7mEYiGE-61" style="edgeStyle=orthogonalEdgeStyle;rounded=0;orthogonalLoop=1;jettySize=auto;html=1;entryX=0;entryY=0.5;entryDx=0;entryDy=0;" edge="1" parent="mvioNwK95yMqdUQ73LqQ-36" source="Yg89CHvpsKPFk7mEYiGE-54" target="Yg89CHvpsKPFk7mEYiGE-25">
          <mxGeometry relative="1" as="geometry">
            <mxPoint x="554" y="360" as="targetPoint" />
          </mxGeometry>
        </mxCell>
        <mxCell id="Yg89CHvpsKPFk7mEYiGE-62" value="ต้องการเข้า Mode Admin(T)" style="edgeLabel;html=1;align=center;verticalAlign=middle;resizable=0;points=[];" vertex="1" connectable="0" parent="Yg89CHvpsKPFk7mEYiGE-61">
          <mxGeometry x="-0.7121" y="-1" relative="1" as="geometry">
            <mxPoint x="53" y="-1" as="offset" />
          </mxGeometry>
        </mxCell>
        <mxCell id="Yg89CHvpsKPFk7mEYiGE-54" value="เข้า Mode Admin?" style="rhombus;whiteSpace=wrap;html=1;fontFamily=Sarabun;fontSource=https%3A%2F%2Ffonts.googleapis.com%2Fcss%3Ffamily%3DSarabun;" vertex="1" parent="mvioNwK95yMqdUQ73LqQ-36">
          <mxGeometry x="378.65999999999997" y="330" width="117.56" height="60" as="geometry" />
        </mxCell>
        <mxCell id="Yg89CHvpsKPFk7mEYiGE-66" style="edgeStyle=orthogonalEdgeStyle;rounded=0;orthogonalLoop=1;jettySize=auto;html=1;entryX=1;entryY=0.5;entryDx=0;entryDy=0;" edge="1" parent="mvioNwK95yMqdUQ73LqQ-36" source="Yg89CHvpsKPFk7mEYiGE-65" target="Yg89CHvpsKPFk7mEYiGE-67">
          <mxGeometry relative="1" as="geometry">
            <mxPoint x="894" y="99.15784333881584" as="targetPoint" />
            <Array as="points">
              <mxPoint x="904" y="500" />
              <mxPoint x="904" y="115" />
            </Array>
          </mxGeometry>
        </mxCell>
        <mxCell id="Yg89CHvpsKPFk7mEYiGE-70" value="รหัสผ่านไม่ถูกต้อง(F)" style="edgeLabel;html=1;align=center;verticalAlign=middle;resizable=0;points=[];" vertex="1" connectable="0" parent="Yg89CHvpsKPFk7mEYiGE-66">
          <mxGeometry x="-0.4562" y="-2" relative="1" as="geometry">
            <mxPoint as="offset" />
          </mxGeometry>
        </mxCell>
        <mxCell id="Yg89CHvpsKPFk7mEYiGE-71" style="edgeStyle=orthogonalEdgeStyle;rounded=0;orthogonalLoop=1;jettySize=auto;html=1;entryX=0.5;entryY=0;entryDx=0;entryDy=0;" edge="1" parent="mvioNwK95yMqdUQ73LqQ-36" source="Yg89CHvpsKPFk7mEYiGE-65" target="Yg89CHvpsKPFk7mEYiGE-52">
          <mxGeometry relative="1" as="geometry">
            <mxPoint x="756.0000000000005" y="580" as="targetPoint" />
          </mxGeometry>
        </mxCell>
        <mxCell id="Yg89CHvpsKPFk7mEYiGE-72" value="รหัสผ่านถูกต้อง(T)" style="edgeLabel;html=1;align=center;verticalAlign=middle;resizable=0;points=[];" vertex="1" connectable="0" parent="Yg89CHvpsKPFk7mEYiGE-71">
          <mxGeometry x="-0.0586" y="-1" relative="1" as="geometry">
            <mxPoint as="offset" />
          </mxGeometry>
        </mxCell>
        <mxCell id="Yg89CHvpsKPFk7mEYiGE-65" value="รหัสผ่านถูก?" style="rhombus;whiteSpace=wrap;html=1;fontFamily=Sarabun;fontSource=https%3A%2F%2Ffonts.googleapis.com%2Fcss%3Ffamily%3DSarabun;" vertex="1" parent="mvioNwK95yMqdUQ73LqQ-36">
          <mxGeometry x="697.22" y="470" width="117.56" height="60" as="geometry" />
        </mxCell>
        <mxCell id="Yg89CHvpsKPFk7mEYiGE-68" value="" style="edgeStyle=orthogonalEdgeStyle;rounded=0;orthogonalLoop=1;jettySize=auto;html=1;entryX=0.5;entryY=1;entryDx=0;entryDy=0;" edge="1" parent="mvioNwK95yMqdUQ73LqQ-36" source="lKXdoufizGsUkh9-Anli-34" target="Yg89CHvpsKPFk7mEYiGE-67">
          <mxGeometry relative="1" as="geometry">
            <mxPoint x="-402" y="715" as="targetPoint" />
            <Array as="points">
              <mxPoint x="569" y="260" />
            </Array>
            <mxPoint x="-367" y="860" as="sourcePoint" />
          </mxGeometry>
        </mxCell>
        <mxCell id="Yg89CHvpsKPFk7mEYiGE-69" value="เข้าใช้งานไม่สำเร็จ(F)" style="edgeLabel;html=1;align=center;verticalAlign=middle;resizable=0;points=[];" vertex="1" connectable="0" parent="Yg89CHvpsKPFk7mEYiGE-68">
          <mxGeometry x="-0.2006" y="1" relative="1" as="geometry">
            <mxPoint as="offset" />
          </mxGeometry>
        </mxCell>
        <mxCell id="Yg89CHvpsKPFk7mEYiGE-67" value="" style="ellipse;whiteSpace=wrap;html=1;aspect=fixed;" vertex="1" parent="mvioNwK95yMqdUQ73LqQ-36">
          <mxGeometry x="554" y="100" width="30" height="30" as="geometry" />
        </mxCell>
        <mxCell id="Yg89CHvpsKPFk7mEYiGE-77" value="" style="edgeStyle=orthogonalEdgeStyle;rounded=0;orthogonalLoop=1;jettySize=auto;html=1;entryX=0.5;entryY=0;entryDx=0;entryDy=0;" edge="1" parent="mvioNwK95yMqdUQ73LqQ-36" source="lKXdoufizGsUkh9-Anli-3" target="Yg89CHvpsKPFk7mEYiGE-76">
          <mxGeometry relative="1" as="geometry">
            <mxPoint x="-417" y="1130" as="sourcePoint" />
            <mxPoint x="-417" y="1220" as="targetPoint" />
          </mxGeometry>
        </mxCell>
        <mxCell id="Yg89CHvpsKPFk7mEYiGE-76" value="รับค่าจากฟังก์ชันซื้อสินค้า" style="shape=parallelogram;perimeter=parallelogramPerimeter;whiteSpace=wrap;html=1;fixedSize=1;fontFamily=Sarabun;fontSource=https%3A%2F%2Ffonts.googleapis.com%2Fcss%3Ffamily%3DSarabun;" vertex="1" parent="mvioNwK95yMqdUQ73LqQ-36">
          <mxGeometry x="358.94" y="560" width="157" height="30" as="geometry" />
        </mxCell>
        <mxCell id="Yg89CHvpsKPFk7mEYiGE-170" style="edgeStyle=orthogonalEdgeStyle;rounded=0;orthogonalLoop=1;jettySize=auto;html=1;entryX=0.5;entryY=0;entryDx=0;entryDy=0;" edge="1" parent="mvioNwK95yMqdUQ73LqQ-36" source="Yg89CHvpsKPFk7mEYiGE-104" target="Yg89CHvpsKPFk7mEYiGE-169">
          <mxGeometry relative="1" as="geometry" />
        </mxCell>
        <mxCell id="Yg89CHvpsKPFk7mEYiGE-104" value="&lt;span style=&quot;color: rgb(18, 18, 18); font-family: Sarabun; font-weight: 700; text-wrap-mode: nowrap;&quot;&gt;ฟังก์ชันสรุปยอดเงินในเครื่อง&lt;/span&gt;" style="shape=process;whiteSpace=wrap;html=1;backgroundOutline=1;fillColor=#d80073;fontColor=#ffffff;strokeColor=#A50040;" vertex="1" parent="mvioNwK95yMqdUQ73LqQ-36">
          <mxGeometry x="339.94" y="860" width="195" height="30" as="geometry" />
        </mxCell>
        <mxCell id="Yg89CHvpsKPFk7mEYiGE-171" style="edgeStyle=orthogonalEdgeStyle;rounded=0;orthogonalLoop=1;jettySize=auto;html=1;entryX=0.5;entryY=0;entryDx=0;entryDy=0;" edge="1" parent="mvioNwK95yMqdUQ73LqQ-36" source="Yg89CHvpsKPFk7mEYiGE-169" target="mvioNwK95yMqdUQ73LqQ-69">
          <mxGeometry relative="1" as="geometry" />
        </mxCell>
        <mxCell id="Yg89CHvpsKPFk7mEYiGE-169" value="" style="ellipse;whiteSpace=wrap;html=1;aspect=fixed;" vertex="1" parent="mvioNwK95yMqdUQ73LqQ-36">
          <mxGeometry x="423.94" y="940" width="27" height="27" as="geometry" />
        </mxCell>
        <mxCell id="mvioNwK95yMqdUQ73LqQ-70" value="&lt;font data-font-src=&quot;https://fonts.googleapis.com/css?family=Sarabun&quot; face=&quot;Sarabun&quot;&gt;โจทย์ปัญหา&lt;/font&gt;" style="swimlane;whiteSpace=wrap;html=1;" parent="WIyWlLk6GJQsqaUBKTNV-1" vertex="1">
          <mxGeometry x="-720" y="320" width="640" height="240" as="geometry" />
        </mxCell>
        <mxCell id="mvioNwK95yMqdUQ73LqQ-71" value="&lt;font data-font-src=&quot;https://fonts.googleapis.com/css?family=Sarabun&quot; face=&quot;Sarabun&quot; style=&quot;font-size: 14px;&quot;&gt;จงเขียน Flowchart เพื่อแสดงขั้นตอนการทำงาน ของเครื่องขายน้ำอัตโนมัติที่ชื่อว่า &quot;ตะพาบลอย&quot;&lt;br&gt;โดยจะต้องมีสินค้าดังนี้&lt;br&gt;&lt;u&gt;ประเภทน้ำ&lt;span style=&quot;white-space: pre;&quot;&gt;&#x9;&lt;/span&gt;&lt;span style=&quot;white-space: pre;&quot;&gt;&#x9;&lt;/span&gt;&lt;span style=&quot;white-space: pre;&quot;&gt;&#x9;&lt;/span&gt;&lt;span style=&quot;white-space: pre;&quot;&gt;&#x9;&lt;/span&gt;&lt;span style=&quot;white-space: pre;&quot;&gt;&#x9;&lt;/span&gt;&lt;span style=&quot;white-space: pre;&quot;&gt;&#x9;&lt;span style=&quot;white-space: pre;&quot;&gt;&#x9;&lt;/span&gt;ข&lt;/span&gt;นม&lt;/u&gt;&lt;br&gt;&lt;span style=&quot;white-space: pre;&quot;&gt;&#x9;&lt;/span&gt;- โค้ก กระป๋องละ 10 บาท&lt;span style=&quot;white-space: pre;&quot;&gt;&#x9;&lt;/span&gt;&lt;span style=&quot;white-space: pre;&quot;&gt;&#x9;&lt;/span&gt;&lt;span style=&quot;white-space: pre;&quot;&gt;&#x9;&lt;/span&gt;&lt;span style=&quot;white-space: pre;&quot;&gt;&#x9;&lt;/span&gt;- เมล็ดทานตะวัน 13 บาท&lt;br&gt;&lt;span style=&quot;white-space: pre;&quot;&gt;&#x9;&lt;/span&gt;- น้ำเขียว กระป๋องละ 12 บาท&lt;span style=&quot;white-space: pre;&quot;&gt;&#x9;&lt;/span&gt;&lt;span style=&quot;white-space: pre;&quot;&gt;&#x9;&lt;/span&gt;&lt;span style=&quot;white-space: pre;&quot;&gt;&#x9;&lt;/span&gt;- ถั่วแปบ 20 บาท&lt;br&gt;&lt;span style=&quot;white-space: pre;&quot;&gt;&#x9;&lt;/span&gt;- อเมริกาโน่ 30 บาท&lt;span style=&quot;white-space: pre;&quot;&gt;&#x9;&lt;/span&gt;&lt;span style=&quot;white-space: pre;&quot;&gt;&#x9;&lt;/span&gt;&lt;span style=&quot;white-space: pre;&quot;&gt;&#x9;&lt;/span&gt;&lt;span style=&quot;white-space: pre;&quot;&gt;&#x9;&lt;/span&gt;&lt;span style=&quot;white-space: pre;&quot;&gt;&#x9;&lt;/span&gt;- จิ้นส้มหมก 15 บาท&lt;br&gt;&lt;span style=&quot;white-space: pre;&quot;&gt;&#x9;&lt;/span&gt;- ลาเต้ หวานเจี๊ยบ 35 บาท&lt;span style=&quot;white-space: pre;&quot;&gt;&#x9;&lt;/span&gt;&lt;br&gt;&lt;br&gt;&lt;u&gt;สิ่งที่ระบบควรจะทำได้&lt;/u&gt;&lt;br&gt;&lt;span style=&quot;white-space: pre;&quot;&gt;&#x9;&lt;/span&gt;- ลูกค้าเลือกสินค้า, ระบบจะต้องรวมยอดขาย และรวมรายการสินค้าทั้งหมดที่ลูกค้าเลือก&lt;br&gt;&lt;span style=&quot;white-space: pre;&quot;&gt;&#x9;&lt;/span&gt;- สรุปยอดว่าเหลือเงินในตู้อีกเท่าไหร่ เหลือเหรียญอะไรบ้าง? ธนบัตรอะไรบ้าง? อย่างละเท่าไหร่?&lt;br&gt;&lt;br&gt;&lt;br&gt;&lt;/font&gt;" style="text;html=1;align=left;verticalAlign=middle;resizable=0;points=[];autosize=1;strokeColor=none;fillColor=none;fontSize=14;" parent="mvioNwK95yMqdUQ73LqQ-70" vertex="1">
          <mxGeometry x="25" y="30" width="580" height="240" as="geometry" />
        </mxCell>
        <mxCell id="lKXdoufizGsUkh9-Anli-0" value="ฟังก์ชันซื้อสินค้า" style="swimlane;fontFamily=Sarabun;fontSource=https%3A%2F%2Ffonts.googleapis.com%2Fcss%3Ffamily%3DSarabun;fillColor=#0050ef;fontColor=#ffffff;strokeColor=#001DBC;" parent="WIyWlLk6GJQsqaUBKTNV-1" vertex="1">
          <mxGeometry x="290" y="500" width="1180" height="1710" as="geometry" />
        </mxCell>
        <mxCell id="lKXdoufizGsUkh9-Anli-27" style="edgeStyle=orthogonalEdgeStyle;rounded=0;orthogonalLoop=1;jettySize=auto;html=1;entryX=0.5;entryY=0;entryDx=0;entryDy=0;" parent="lKXdoufizGsUkh9-Anli-0" source="lKXdoufizGsUkh9-Anli-1" target="lKXdoufizGsUkh9-Anli-26" edge="1">
          <mxGeometry relative="1" as="geometry" />
        </mxCell>
        <mxCell id="lKXdoufizGsUkh9-Anli-1" value="&lt;font data-font-src=&quot;https://fonts.googleapis.com/css?family=Sarabun&quot; face=&quot;Sarabun&quot;&gt;เริ่มต้น&lt;/font&gt;" style="ellipse;whiteSpace=wrap;html=1;" parent="lKXdoufizGsUkh9-Anli-0" vertex="1">
          <mxGeometry x="385" y="30" width="130" height="30" as="geometry" />
        </mxCell>
        <mxCell id="lKXdoufizGsUkh9-Anli-10" style="edgeStyle=orthogonalEdgeStyle;rounded=0;orthogonalLoop=1;jettySize=auto;html=1;entryX=0.5;entryY=0;entryDx=0;entryDy=0;" parent="lKXdoufizGsUkh9-Anli-0" source="lKXdoufizGsUkh9-Anli-8" target="lKXdoufizGsUkh9-Anli-9" edge="1">
          <mxGeometry relative="1" as="geometry">
            <Array as="points">
              <mxPoint x="450" y="180" />
              <mxPoint x="255" y="180" />
              <mxPoint x="255" y="200" />
            </Array>
          </mxGeometry>
        </mxCell>
        <mxCell id="lKXdoufizGsUkh9-Anli-8" value="รับค่าสินค้าจากลูกค้า" style="shape=parallelogram;perimeter=parallelogramPerimeter;whiteSpace=wrap;html=1;fixedSize=1;fontFamily=Sarabun;fontSource=https%3A%2F%2Ffonts.googleapis.com%2Fcss%3Ffamily%3DSarabun;" parent="lKXdoufizGsUkh9-Anli-0" vertex="1">
          <mxGeometry x="380" y="130" width="140" height="30" as="geometry" />
        </mxCell>
        <mxCell id="lKXdoufizGsUkh9-Anli-18" style="edgeStyle=orthogonalEdgeStyle;rounded=0;orthogonalLoop=1;jettySize=auto;html=1;entryX=0.5;entryY=0;entryDx=0;entryDy=0;" parent="lKXdoufizGsUkh9-Anli-0" source="lKXdoufizGsUkh9-Anli-9" target="lKXdoufizGsUkh9-Anli-13" edge="1">
          <mxGeometry relative="1" as="geometry" />
        </mxCell>
        <mxCell id="lKXdoufizGsUkh9-Anli-19" value="เป็นสินค้าประเภทขนม (T)" style="edgeLabel;html=1;align=center;verticalAlign=middle;resizable=0;points=[];" parent="lKXdoufizGsUkh9-Anli-18" vertex="1" connectable="0">
          <mxGeometry x="0.0975" y="2" relative="1" as="geometry">
            <mxPoint x="-2" y="-3" as="offset" />
          </mxGeometry>
        </mxCell>
        <mxCell id="lKXdoufizGsUkh9-Anli-21" style="edgeStyle=orthogonalEdgeStyle;rounded=0;orthogonalLoop=1;jettySize=auto;html=1;entryX=0;entryY=0.5;entryDx=0;entryDy=0;" parent="lKXdoufizGsUkh9-Anli-0" source="lKXdoufizGsUkh9-Anli-9" target="lKXdoufizGsUkh9-Anli-20" edge="1">
          <mxGeometry relative="1" as="geometry" />
        </mxCell>
        <mxCell id="lKXdoufizGsUkh9-Anli-22" value="ไม่เป็นสินค้าประเภทขนม (F)" style="edgeLabel;html=1;align=center;verticalAlign=middle;resizable=0;points=[];" parent="lKXdoufizGsUkh9-Anli-21" vertex="1" connectable="0">
          <mxGeometry x="-0.664" y="-2" relative="1" as="geometry">
            <mxPoint x="54" y="-2" as="offset" />
          </mxGeometry>
        </mxCell>
        <mxCell id="lKXdoufizGsUkh9-Anli-9" value="สินค้าประเภทขนม?" style="rhombus;whiteSpace=wrap;html=1;fontFamily=Sarabun;fontSource=https%3A%2F%2Ffonts.googleapis.com%2Fcss%3Ffamily%3DSarabun;" parent="lKXdoufizGsUkh9-Anli-0" vertex="1">
          <mxGeometry x="190" y="200" width="129" height="60" as="geometry" />
        </mxCell>
        <mxCell id="lKXdoufizGsUkh9-Anli-41" style="edgeStyle=orthogonalEdgeStyle;rounded=0;orthogonalLoop=1;jettySize=auto;html=1;entryX=0.5;entryY=0;entryDx=0;entryDy=0;" parent="lKXdoufizGsUkh9-Anli-0" source="lKXdoufizGsUkh9-Anli-13" target="lKXdoufizGsUkh9-Anli-14" edge="1">
          <mxGeometry relative="1" as="geometry" />
        </mxCell>
        <mxCell id="lKXdoufizGsUkh9-Anli-42" value="ไม่ใช่เมล็ดทานตะวัน(F)" style="edgeLabel;html=1;align=center;verticalAlign=middle;resizable=0;points=[];" parent="lKXdoufizGsUkh9-Anli-41" vertex="1" connectable="0">
          <mxGeometry x="-0.0724" y="1" relative="1" as="geometry">
            <mxPoint as="offset" />
          </mxGeometry>
        </mxCell>
        <mxCell id="lKXdoufizGsUkh9-Anli-94" style="edgeStyle=orthogonalEdgeStyle;rounded=0;orthogonalLoop=1;jettySize=auto;html=1;" parent="lKXdoufizGsUkh9-Anli-0" source="lKXdoufizGsUkh9-Anli-13" target="lKXdoufizGsUkh9-Anli-93" edge="1">
          <mxGeometry relative="1" as="geometry" />
        </mxCell>
        <mxCell id="lKXdoufizGsUkh9-Anli-100" value="เป็นทานตะวัน(T)" style="edgeLabel;html=1;align=center;verticalAlign=middle;resizable=0;points=[];" parent="lKXdoufizGsUkh9-Anli-94" vertex="1" connectable="0">
          <mxGeometry x="-0.4015" y="-1" relative="1" as="geometry">
            <mxPoint x="25" y="-1" as="offset" />
          </mxGeometry>
        </mxCell>
        <mxCell id="lKXdoufizGsUkh9-Anli-13" value="&lt;span style=&quot;font-size: 14px; text-align: left; text-wrap-mode: nowrap;&quot;&gt;เมล็ดทานตะวัน?&lt;/span&gt;" style="rhombus;whiteSpace=wrap;html=1;fontFamily=Sarabun;fontSource=https%3A%2F%2Ffonts.googleapis.com%2Fcss%3Ffamily%3DSarabun;" parent="lKXdoufizGsUkh9-Anli-0" vertex="1">
          <mxGeometry x="190" y="310" width="129" height="60" as="geometry" />
        </mxCell>
        <mxCell id="lKXdoufizGsUkh9-Anli-43" style="edgeStyle=orthogonalEdgeStyle;rounded=0;orthogonalLoop=1;jettySize=auto;html=1;entryX=0.5;entryY=0;entryDx=0;entryDy=0;" parent="lKXdoufizGsUkh9-Anli-0" source="lKXdoufizGsUkh9-Anli-14" target="lKXdoufizGsUkh9-Anli-15" edge="1">
          <mxGeometry relative="1" as="geometry" />
        </mxCell>
        <mxCell id="lKXdoufizGsUkh9-Anli-44" value="ไม่ใช่ถั่วเเปบ(F)" style="edgeLabel;html=1;align=center;verticalAlign=middle;resizable=0;points=[];" parent="lKXdoufizGsUkh9-Anli-43" vertex="1" connectable="0">
          <mxGeometry x="-0.2724" y="-1" relative="1" as="geometry">
            <mxPoint as="offset" />
          </mxGeometry>
        </mxCell>
        <mxCell id="lKXdoufizGsUkh9-Anli-96" style="edgeStyle=orthogonalEdgeStyle;rounded=0;orthogonalLoop=1;jettySize=auto;html=1;entryX=0;entryY=0.5;entryDx=0;entryDy=0;" parent="lKXdoufizGsUkh9-Anli-0" source="lKXdoufizGsUkh9-Anli-14" target="lKXdoufizGsUkh9-Anli-92" edge="1">
          <mxGeometry relative="1" as="geometry" />
        </mxCell>
        <mxCell id="lKXdoufizGsUkh9-Anli-102" value="เป็นถั่วเเปบ(T)" style="edgeLabel;html=1;align=center;verticalAlign=middle;resizable=0;points=[];" parent="lKXdoufizGsUkh9-Anli-96" vertex="1" connectable="0">
          <mxGeometry x="-0.5713" y="2" relative="1" as="geometry">
            <mxPoint x="27" y="2" as="offset" />
          </mxGeometry>
        </mxCell>
        <mxCell id="lKXdoufizGsUkh9-Anli-14" value="&lt;span style=&quot;font-size: 14px; text-align: left; text-wrap-mode: nowrap;&quot;&gt;ถั่วแปบ&lt;/span&gt;" style="rhombus;whiteSpace=wrap;html=1;fontFamily=Sarabun;fontSource=https%3A%2F%2Ffonts.googleapis.com%2Fcss%3Ffamily%3DSarabun;" parent="lKXdoufizGsUkh9-Anli-0" vertex="1">
          <mxGeometry x="190" y="420" width="129" height="60" as="geometry" />
        </mxCell>
        <mxCell id="lKXdoufizGsUkh9-Anli-45" style="edgeStyle=orthogonalEdgeStyle;rounded=0;orthogonalLoop=1;jettySize=auto;html=1;entryX=0;entryY=0.5;entryDx=0;entryDy=0;" parent="lKXdoufizGsUkh9-Anli-0" source="lKXdoufizGsUkh9-Anli-69" target="lKXdoufizGsUkh9-Anli-26" edge="1">
          <mxGeometry relative="1" as="geometry">
            <mxPoint x="300" y="108" as="targetPoint" />
            <Array as="points">
              <mxPoint x="20" y="95" />
            </Array>
          </mxGeometry>
        </mxCell>
        <mxCell id="lKXdoufizGsUkh9-Anli-84" style="edgeStyle=orthogonalEdgeStyle;rounded=0;orthogonalLoop=1;jettySize=auto;html=1;entryX=0.5;entryY=0;entryDx=0;entryDy=0;" parent="lKXdoufizGsUkh9-Anli-0" source="lKXdoufizGsUkh9-Anli-85" target="lKXdoufizGsUkh9-Anli-88" edge="1">
          <mxGeometry relative="1" as="geometry" />
        </mxCell>
        <mxCell id="lKXdoufizGsUkh9-Anli-15" value="&lt;span style=&quot;font-size: 14px; text-align: left; text-wrap-mode: nowrap;&quot;&gt;จิ้นส้มหมก&lt;/span&gt;" style="rhombus;whiteSpace=wrap;html=1;fontFamily=Sarabun;fontSource=https%3A%2F%2Ffonts.googleapis.com%2Fcss%3Ffamily%3DSarabun;" parent="lKXdoufizGsUkh9-Anli-0" vertex="1">
          <mxGeometry x="190" y="530" width="129" height="60" as="geometry" />
        </mxCell>
        <mxCell id="lKXdoufizGsUkh9-Anli-23" style="edgeStyle=orthogonalEdgeStyle;rounded=0;orthogonalLoop=1;jettySize=auto;html=1;entryX=0.5;entryY=0;entryDx=0;entryDy=0;" parent="lKXdoufizGsUkh9-Anli-0" source="lKXdoufizGsUkh9-Anli-20" target="lKXdoufizGsUkh9-Anli-48" edge="1">
          <mxGeometry relative="1" as="geometry">
            <mxPoint x="612" y="300" as="targetPoint" />
          </mxGeometry>
        </mxCell>
        <mxCell id="lKXdoufizGsUkh9-Anli-24" value="เป็นสินค้าประเภทน้ำ (T)" style="edgeLabel;html=1;align=center;verticalAlign=middle;resizable=0;points=[];" parent="lKXdoufizGsUkh9-Anli-23" vertex="1" connectable="0">
          <mxGeometry x="-0.2156" y="-2" relative="1" as="geometry">
            <mxPoint as="offset" />
          </mxGeometry>
        </mxCell>
        <mxCell id="lKXdoufizGsUkh9-Anli-25" style="edgeStyle=orthogonalEdgeStyle;rounded=0;orthogonalLoop=1;jettySize=auto;html=1;entryX=1;entryY=0.5;entryDx=0;entryDy=0;exitX=0.5;exitY=0;exitDx=0;exitDy=0;" parent="lKXdoufizGsUkh9-Anli-0" source="lKXdoufizGsUkh9-Anli-75" target="lKXdoufizGsUkh9-Anli-26" edge="1">
          <mxGeometry relative="1" as="geometry">
            <mxPoint x="550" y="90" as="targetPoint" />
            <Array as="points">
              <mxPoint x="1130" y="95" />
            </Array>
          </mxGeometry>
        </mxCell>
        <mxCell id="lKXdoufizGsUkh9-Anli-20" value="สินค้าประเภทน้ำ?" style="rhombus;whiteSpace=wrap;html=1;fontFamily=Sarabun;fontSource=https%3A%2F%2Ffonts.googleapis.com%2Fcss%3Ffamily%3DSarabun;" parent="lKXdoufizGsUkh9-Anli-0" vertex="1">
          <mxGeometry x="580" y="200" width="129" height="60" as="geometry" />
        </mxCell>
        <mxCell id="lKXdoufizGsUkh9-Anli-28" style="edgeStyle=orthogonalEdgeStyle;rounded=0;orthogonalLoop=1;jettySize=auto;html=1;entryX=0.5;entryY=0;entryDx=0;entryDy=0;" parent="lKXdoufizGsUkh9-Anli-0" source="lKXdoufizGsUkh9-Anli-26" target="lKXdoufizGsUkh9-Anli-8" edge="1">
          <mxGeometry relative="1" as="geometry" />
        </mxCell>
        <mxCell id="lKXdoufizGsUkh9-Anli-26" value="" style="ellipse;whiteSpace=wrap;html=1;aspect=fixed;" parent="lKXdoufizGsUkh9-Anli-0" vertex="1">
          <mxGeometry x="435" y="80" width="30" height="30" as="geometry" />
        </mxCell>
        <mxCell id="lKXdoufizGsUkh9-Anli-47" value="&lt;font face=&quot;Sarabun&quot;&gt;สิ้นสุด&lt;/font&gt;" style="ellipse;whiteSpace=wrap;html=1;" parent="lKXdoufizGsUkh9-Anli-0" vertex="1">
          <mxGeometry x="377.5" y="1650" width="130" height="30" as="geometry" />
        </mxCell>
        <mxCell id="lKXdoufizGsUkh9-Anli-52" style="edgeStyle=orthogonalEdgeStyle;rounded=0;orthogonalLoop=1;jettySize=auto;html=1;" parent="lKXdoufizGsUkh9-Anli-0" source="lKXdoufizGsUkh9-Anli-48" target="lKXdoufizGsUkh9-Anli-49" edge="1">
          <mxGeometry relative="1" as="geometry" />
        </mxCell>
        <mxCell id="lKXdoufizGsUkh9-Anli-55" value="ไม่ใช่โค้ก(F)" style="edgeLabel;html=1;align=center;verticalAlign=middle;resizable=0;points=[];" parent="lKXdoufizGsUkh9-Anli-52" vertex="1" connectable="0">
          <mxGeometry x="-0.1009" y="3" relative="1" as="geometry">
            <mxPoint as="offset" />
          </mxGeometry>
        </mxCell>
        <mxCell id="lKXdoufizGsUkh9-Anli-95" style="edgeStyle=orthogonalEdgeStyle;rounded=0;orthogonalLoop=1;jettySize=auto;html=1;entryX=1;entryY=0.5;entryDx=0;entryDy=0;" parent="lKXdoufizGsUkh9-Anli-0" source="lKXdoufizGsUkh9-Anli-48" target="lKXdoufizGsUkh9-Anli-93" edge="1">
          <mxGeometry relative="1" as="geometry" />
        </mxCell>
        <mxCell id="lKXdoufizGsUkh9-Anli-101" value="เป็นโค้ด(T)" style="edgeLabel;html=1;align=center;verticalAlign=middle;resizable=0;points=[];" parent="lKXdoufizGsUkh9-Anli-95" vertex="1" connectable="0">
          <mxGeometry x="0.6071" y="-1" relative="1" as="geometry">
            <mxPoint x="32" y="1" as="offset" />
          </mxGeometry>
        </mxCell>
        <mxCell id="lKXdoufizGsUkh9-Anli-48" value="&lt;span style=&quot;font-size: 14px; text-align: left; text-wrap-mode: nowrap;&quot;&gt;โค้ก?&lt;/span&gt;" style="rhombus;whiteSpace=wrap;html=1;fontFamily=Sarabun;fontSource=https%3A%2F%2Ffonts.googleapis.com%2Fcss%3Ffamily%3DSarabun;" parent="lKXdoufizGsUkh9-Anli-0" vertex="1">
          <mxGeometry x="583.25" y="310" width="122.5" height="60" as="geometry" />
        </mxCell>
        <mxCell id="lKXdoufizGsUkh9-Anli-53" style="edgeStyle=orthogonalEdgeStyle;rounded=0;orthogonalLoop=1;jettySize=auto;html=1;entryX=0.5;entryY=0;entryDx=0;entryDy=0;" parent="lKXdoufizGsUkh9-Anli-0" source="lKXdoufizGsUkh9-Anli-49" target="lKXdoufizGsUkh9-Anli-50" edge="1">
          <mxGeometry relative="1" as="geometry" />
        </mxCell>
        <mxCell id="lKXdoufizGsUkh9-Anli-56" value="ไม่ใช่น้ำเขียว(F)" style="edgeLabel;html=1;align=center;verticalAlign=middle;resizable=0;points=[];" parent="lKXdoufizGsUkh9-Anli-53" vertex="1" connectable="0">
          <mxGeometry x="-0.1882" relative="1" as="geometry">
            <mxPoint as="offset" />
          </mxGeometry>
        </mxCell>
        <mxCell id="lKXdoufizGsUkh9-Anli-97" style="edgeStyle=orthogonalEdgeStyle;rounded=0;orthogonalLoop=1;jettySize=auto;html=1;entryX=1;entryY=0.5;entryDx=0;entryDy=0;" parent="lKXdoufizGsUkh9-Anli-0" source="lKXdoufizGsUkh9-Anli-49" target="lKXdoufizGsUkh9-Anli-92" edge="1">
          <mxGeometry relative="1" as="geometry" />
        </mxCell>
        <mxCell id="lKXdoufizGsUkh9-Anli-103" value="เป็นน้ำเขียว(T)" style="edgeLabel;html=1;align=center;verticalAlign=middle;resizable=0;points=[];" parent="lKXdoufizGsUkh9-Anli-97" vertex="1" connectable="0">
          <mxGeometry x="0.456" y="-1" relative="1" as="geometry">
            <mxPoint x="25" y="1" as="offset" />
          </mxGeometry>
        </mxCell>
        <mxCell id="lKXdoufizGsUkh9-Anli-49" value="&lt;span style=&quot;font-size: 14px; text-align: left; text-wrap-mode: nowrap;&quot;&gt;น้ำเขียว?&lt;/span&gt;" style="rhombus;whiteSpace=wrap;html=1;fontFamily=Sarabun;fontSource=https%3A%2F%2Ffonts.googleapis.com%2Fcss%3Ffamily%3DSarabun;" parent="lKXdoufizGsUkh9-Anli-0" vertex="1">
          <mxGeometry x="583.25" y="420" width="122.5" height="60" as="geometry" />
        </mxCell>
        <mxCell id="lKXdoufizGsUkh9-Anli-54" style="edgeStyle=orthogonalEdgeStyle;rounded=0;orthogonalLoop=1;jettySize=auto;html=1;entryX=0.5;entryY=0;entryDx=0;entryDy=0;" parent="lKXdoufizGsUkh9-Anli-0" source="lKXdoufizGsUkh9-Anli-50" target="lKXdoufizGsUkh9-Anli-51" edge="1">
          <mxGeometry relative="1" as="geometry" />
        </mxCell>
        <mxCell id="lKXdoufizGsUkh9-Anli-58" value="ไม่ใช่อเมริกาโน่(F)" style="edgeLabel;html=1;align=center;verticalAlign=middle;resizable=0;points=[];" parent="lKXdoufizGsUkh9-Anli-54" vertex="1" connectable="0">
          <mxGeometry x="-0.1709" relative="1" as="geometry">
            <mxPoint as="offset" />
          </mxGeometry>
        </mxCell>
        <mxCell id="lKXdoufizGsUkh9-Anli-87" style="edgeStyle=orthogonalEdgeStyle;rounded=0;orthogonalLoop=1;jettySize=auto;html=1;entryX=1;entryY=0.5;entryDx=0;entryDy=0;" parent="lKXdoufizGsUkh9-Anli-0" source="lKXdoufizGsUkh9-Anli-50" target="lKXdoufizGsUkh9-Anli-85" edge="1">
          <mxGeometry relative="1" as="geometry" />
        </mxCell>
        <mxCell id="lKXdoufizGsUkh9-Anli-105" value="เป็นอเมริกาโน่(T)" style="edgeLabel;html=1;align=center;verticalAlign=middle;resizable=0;points=[];" parent="lKXdoufizGsUkh9-Anli-87" vertex="1" connectable="0">
          <mxGeometry x="0.6449" y="-1" relative="1" as="geometry">
            <mxPoint x="34" y="1" as="offset" />
          </mxGeometry>
        </mxCell>
        <mxCell id="lKXdoufizGsUkh9-Anli-50" value="&lt;span style=&quot;font-size: 14px; text-align: left; text-wrap-mode: nowrap;&quot;&gt;อเมริกาโน่&lt;/span&gt;" style="rhombus;whiteSpace=wrap;html=1;fontFamily=Sarabun;fontSource=https%3A%2F%2Ffonts.googleapis.com%2Fcss%3Ffamily%3DSarabun;" parent="lKXdoufizGsUkh9-Anli-0" vertex="1">
          <mxGeometry x="583.25" y="530" width="122.5" height="60" as="geometry" />
        </mxCell>
        <mxCell id="lKXdoufizGsUkh9-Anli-79" style="edgeStyle=orthogonalEdgeStyle;rounded=0;orthogonalLoop=1;jettySize=auto;html=1;entryX=0;entryY=0.5;entryDx=0;entryDy=0;" parent="lKXdoufizGsUkh9-Anli-0" source="lKXdoufizGsUkh9-Anli-51" target="lKXdoufizGsUkh9-Anli-109" edge="1">
          <mxGeometry relative="1" as="geometry">
            <mxPoint x="870" y="670" as="targetPoint" />
          </mxGeometry>
        </mxCell>
        <mxCell id="lKXdoufizGsUkh9-Anli-81" value="ไม่ใช่ลาเต้(F)" style="edgeLabel;html=1;align=center;verticalAlign=middle;resizable=0;points=[];" parent="lKXdoufizGsUkh9-Anli-79" vertex="1" connectable="0">
          <mxGeometry x="-0.7223" y="-2" relative="1" as="geometry">
            <mxPoint x="51" y="-2" as="offset" />
          </mxGeometry>
        </mxCell>
        <mxCell id="lKXdoufizGsUkh9-Anli-89" style="edgeStyle=orthogonalEdgeStyle;rounded=0;orthogonalLoop=1;jettySize=auto;html=1;entryX=1;entryY=0.5;entryDx=0;entryDy=0;" parent="lKXdoufizGsUkh9-Anli-0" source="lKXdoufizGsUkh9-Anli-51" target="lKXdoufizGsUkh9-Anli-88" edge="1">
          <mxGeometry relative="1" as="geometry" />
        </mxCell>
        <mxCell id="lKXdoufizGsUkh9-Anli-107" value="เป็นลาเต้(T)" style="edgeLabel;html=1;align=center;verticalAlign=middle;resizable=0;points=[];" parent="lKXdoufizGsUkh9-Anli-89" vertex="1" connectable="0">
          <mxGeometry x="0.5615" y="-2" relative="1" as="geometry">
            <mxPoint x="33" y="2" as="offset" />
          </mxGeometry>
        </mxCell>
        <mxCell id="lKXdoufizGsUkh9-Anli-51" value="&lt;div style=&quot;text-align: left;&quot;&gt;&lt;span style=&quot;background-color: transparent; color: light-dark(rgb(0, 0, 0), rgb(255, 255, 255)); font-size: 14px; text-wrap-mode: nowrap;&quot;&gt;ลาเต้&lt;/span&gt;&lt;/div&gt;" style="rhombus;whiteSpace=wrap;html=1;fontFamily=Sarabun;fontSource=https%3A%2F%2Ffonts.googleapis.com%2Fcss%3Ffamily%3DSarabun;" parent="lKXdoufizGsUkh9-Anli-0" vertex="1">
          <mxGeometry x="583.25" y="640" width="122.5" height="60" as="geometry" />
        </mxCell>
        <mxCell id="lKXdoufizGsUkh9-Anli-62" style="edgeStyle=orthogonalEdgeStyle;rounded=0;orthogonalLoop=1;jettySize=auto;html=1;entryX=0.5;entryY=0;entryDx=0;entryDy=0;" parent="lKXdoufizGsUkh9-Anli-0" source="lKXdoufizGsUkh9-Anli-59" target="lKXdoufizGsUkh9-Anli-61" edge="1">
          <mxGeometry relative="1" as="geometry" />
        </mxCell>
        <mxCell id="lKXdoufizGsUkh9-Anli-64" value="มีสินค้า(T)" style="edgeLabel;html=1;align=center;verticalAlign=middle;resizable=0;points=[];" parent="lKXdoufizGsUkh9-Anli-62" vertex="1" connectable="0">
          <mxGeometry x="-0.1469" y="-1" relative="1" as="geometry">
            <mxPoint as="offset" />
          </mxGeometry>
        </mxCell>
        <mxCell id="lKXdoufizGsUkh9-Anli-108" style="edgeStyle=orthogonalEdgeStyle;rounded=0;orthogonalLoop=1;jettySize=auto;html=1;entryX=0.5;entryY=1;entryDx=0;entryDy=0;" parent="lKXdoufizGsUkh9-Anli-0" source="lKXdoufizGsUkh9-Anli-131" target="lKXdoufizGsUkh9-Anli-109" edge="1">
          <mxGeometry relative="1" as="geometry">
            <mxPoint x="880" y="689.3333943684895" as="targetPoint" />
            <Array as="points">
              <mxPoint x="1130" y="770" />
              <mxPoint x="1130" y="770" />
            </Array>
          </mxGeometry>
        </mxCell>
        <mxCell id="lKXdoufizGsUkh9-Anli-59" value="&lt;div style=&quot;text-align: left;&quot;&gt;&lt;span style=&quot;background-color: transparent; color: light-dark(rgb(0, 0, 0), rgb(255, 255, 255)); font-size: 14px; text-wrap-mode: nowrap;&quot;&gt;มีสินค้า &amp;gt;= 1?&lt;/span&gt;&lt;/div&gt;" style="rhombus;whiteSpace=wrap;html=1;fontFamily=Sarabun;fontSource=https%3A%2F%2Ffonts.googleapis.com%2Fcss%3Ffamily%3DSarabun;" parent="lKXdoufizGsUkh9-Anli-0" vertex="1">
          <mxGeometry x="375.25" y="1410" width="139.5" height="60" as="geometry" />
        </mxCell>
        <mxCell id="lKXdoufizGsUkh9-Anli-149" style="edgeStyle=orthogonalEdgeStyle;rounded=0;orthogonalLoop=1;jettySize=auto;html=1;entryX=0.5;entryY=0;entryDx=0;entryDy=0;" parent="lKXdoufizGsUkh9-Anli-0" source="lKXdoufizGsUkh9-Anli-61" edge="1">
          <mxGeometry relative="1" as="geometry">
            <mxPoint x="442.5" y="1590" as="targetPoint" />
          </mxGeometry>
        </mxCell>
        <mxCell id="lKXdoufizGsUkh9-Anli-61" value="รับค่าสินค้ากับราคา" style="shape=parallelogram;perimeter=parallelogramPerimeter;whiteSpace=wrap;html=1;fixedSize=1;fontFamily=Sarabun;fontSource=https%3A%2F%2Ffonts.googleapis.com%2Fcss%3Ffamily%3DSarabun;" parent="lKXdoufizGsUkh9-Anli-0" vertex="1">
          <mxGeometry x="375.25" y="1530" width="135" height="30" as="geometry" />
        </mxCell>
        <mxCell id="lKXdoufizGsUkh9-Anli-66" style="edgeStyle=orthogonalEdgeStyle;rounded=0;orthogonalLoop=1;jettySize=auto;html=1;entryX=0.5;entryY=0;entryDx=0;entryDy=0;" parent="lKXdoufizGsUkh9-Anli-0" source="lKXdoufizGsUkh9-Anli-65" target="lKXdoufizGsUkh9-Anli-114" edge="1">
          <mxGeometry relative="1" as="geometry">
            <mxPoint x="445" y="940" as="targetPoint" />
          </mxGeometry>
        </mxCell>
        <mxCell id="lKXdoufizGsUkh9-Anli-67" value="ไม่ต้องการยกเลิก(F)" style="edgeLabel;html=1;align=center;verticalAlign=middle;resizable=0;points=[];" parent="lKXdoufizGsUkh9-Anli-66" vertex="1" connectable="0">
          <mxGeometry x="-0.1722" y="3" relative="1" as="geometry">
            <mxPoint as="offset" />
          </mxGeometry>
        </mxCell>
        <mxCell id="lKXdoufizGsUkh9-Anli-68" style="edgeStyle=orthogonalEdgeStyle;rounded=0;orthogonalLoop=1;jettySize=auto;html=1;entryX=0.5;entryY=1;entryDx=0;entryDy=0;" parent="lKXdoufizGsUkh9-Anli-0" source="lKXdoufizGsUkh9-Anli-65" target="lKXdoufizGsUkh9-Anli-69" edge="1">
          <mxGeometry relative="1" as="geometry">
            <mxPoint x="20" y="650" as="targetPoint" />
          </mxGeometry>
        </mxCell>
        <mxCell id="lKXdoufizGsUkh9-Anli-74" value="ต้องการยกเลิก(T)" style="edgeLabel;html=1;align=center;verticalAlign=middle;resizable=0;points=[];" parent="lKXdoufizGsUkh9-Anli-68" vertex="1" connectable="0">
          <mxGeometry x="-0.1582" y="2" relative="1" as="geometry">
            <mxPoint as="offset" />
          </mxGeometry>
        </mxCell>
        <mxCell id="lKXdoufizGsUkh9-Anli-65" value="&lt;div style=&quot;text-align: left;&quot;&gt;&lt;span style=&quot;font-size: 14px; text-wrap-mode: nowrap;&quot;&gt;ต้องการยกเลิก?&lt;/span&gt;&lt;/div&gt;" style="rhombus;whiteSpace=wrap;html=1;fontFamily=Sarabun;fontSource=https%3A%2F%2Ffonts.googleapis.com%2Fcss%3Ffamily%3DSarabun;" parent="lKXdoufizGsUkh9-Anli-0" vertex="1">
          <mxGeometry x="380.5" y="810" width="129" height="60" as="geometry" />
        </mxCell>
        <mxCell id="lKXdoufizGsUkh9-Anli-72" value="" style="edgeStyle=orthogonalEdgeStyle;rounded=0;orthogonalLoop=1;jettySize=auto;html=1;entryX=1;entryY=0.5;entryDx=0;entryDy=0;" parent="lKXdoufizGsUkh9-Anli-0" source="lKXdoufizGsUkh9-Anli-15" target="lKXdoufizGsUkh9-Anli-69" edge="1">
          <mxGeometry relative="1" as="geometry">
            <mxPoint x="1089" y="676" as="targetPoint" />
            <mxPoint x="928" y="1160" as="sourcePoint" />
            <Array as="points">
              <mxPoint x="254" y="630" />
            </Array>
          </mxGeometry>
        </mxCell>
        <mxCell id="lKXdoufizGsUkh9-Anli-73" value="ไม่ใช่จิ้นส้มหมก(F)" style="edgeLabel;html=1;align=center;verticalAlign=middle;resizable=0;points=[];" parent="lKXdoufizGsUkh9-Anli-72" vertex="1" connectable="0">
          <mxGeometry x="-0.7278" y="4" relative="1" as="geometry">
            <mxPoint x="-128" y="4" as="offset" />
          </mxGeometry>
        </mxCell>
        <mxCell id="lKXdoufizGsUkh9-Anli-69" value="" style="ellipse;whiteSpace=wrap;html=1;aspect=fixed;" parent="lKXdoufizGsUkh9-Anli-0" vertex="1">
          <mxGeometry x="10" y="620" width="20" height="20" as="geometry" />
        </mxCell>
        <mxCell id="lKXdoufizGsUkh9-Anli-76" value="" style="edgeStyle=orthogonalEdgeStyle;rounded=0;orthogonalLoop=1;jettySize=auto;html=1;entryX=0;entryY=0.5;entryDx=0;entryDy=0;" parent="lKXdoufizGsUkh9-Anli-0" source="lKXdoufizGsUkh9-Anli-20" target="lKXdoufizGsUkh9-Anli-75" edge="1">
          <mxGeometry relative="1" as="geometry">
            <mxPoint x="1185" y="665" as="targetPoint" />
            <mxPoint x="1397" y="800" as="sourcePoint" />
            <Array as="points" />
          </mxGeometry>
        </mxCell>
        <mxCell id="lKXdoufizGsUkh9-Anli-78" value="ไม่เป็นสินค้าประเภทน้ำ(F)" style="edgeLabel;html=1;align=center;verticalAlign=middle;resizable=0;points=[];" parent="lKXdoufizGsUkh9-Anli-76" vertex="1" connectable="0">
          <mxGeometry x="-0.1762" relative="1" as="geometry">
            <mxPoint as="offset" />
          </mxGeometry>
        </mxCell>
        <mxCell id="lKXdoufizGsUkh9-Anli-75" value="" style="ellipse;whiteSpace=wrap;html=1;aspect=fixed;" parent="lKXdoufizGsUkh9-Anli-0" vertex="1">
          <mxGeometry x="1120" y="215" width="20" height="20" as="geometry" />
        </mxCell>
        <mxCell id="lKXdoufizGsUkh9-Anli-83" style="edgeStyle=orthogonalEdgeStyle;rounded=0;orthogonalLoop=1;jettySize=auto;html=1;entryX=0.5;entryY=0;entryDx=0;entryDy=0;" parent="lKXdoufizGsUkh9-Anli-0" source="lKXdoufizGsUkh9-Anli-82" target="lKXdoufizGsUkh9-Anli-65" edge="1">
          <mxGeometry relative="1" as="geometry" />
        </mxCell>
        <mxCell id="lKXdoufizGsUkh9-Anli-82" value="เเสดงราคาสินค้า" style="shape=parallelogram;perimeter=parallelogramPerimeter;whiteSpace=wrap;html=1;fixedSize=1;fontFamily=Sarabun;fontSource=https%3A%2F%2Ffonts.googleapis.com%2Fcss%3Ffamily%3DSarabun;" parent="lKXdoufizGsUkh9-Anli-0" vertex="1">
          <mxGeometry x="377.5" y="750" width="135" height="30" as="geometry" />
        </mxCell>
        <mxCell id="lKXdoufizGsUkh9-Anli-86" value="" style="edgeStyle=orthogonalEdgeStyle;rounded=0;orthogonalLoop=1;jettySize=auto;html=1;entryX=0;entryY=0.5;entryDx=0;entryDy=0;" parent="lKXdoufizGsUkh9-Anli-0" source="lKXdoufizGsUkh9-Anli-15" target="lKXdoufizGsUkh9-Anli-85" edge="1">
          <mxGeometry relative="1" as="geometry">
            <mxPoint x="1063" y="1130" as="sourcePoint" />
            <mxPoint x="1165" y="1320" as="targetPoint" />
            <Array as="points" />
          </mxGeometry>
        </mxCell>
        <mxCell id="lKXdoufizGsUkh9-Anli-104" value="เป็นจิ้นส้มหมก(T)" style="edgeLabel;html=1;align=center;verticalAlign=middle;resizable=0;points=[];" parent="lKXdoufizGsUkh9-Anli-86" vertex="1" connectable="0">
          <mxGeometry x="-0.7019" y="-1" relative="1" as="geometry">
            <mxPoint x="35" y="-1" as="offset" />
          </mxGeometry>
        </mxCell>
        <mxCell id="lKXdoufizGsUkh9-Anli-85" value="" style="ellipse;whiteSpace=wrap;html=1;aspect=fixed;" parent="lKXdoufizGsUkh9-Anli-0" vertex="1">
          <mxGeometry x="430" y="545" width="30" height="30" as="geometry" />
        </mxCell>
        <mxCell id="lKXdoufizGsUkh9-Anli-90" style="edgeStyle=orthogonalEdgeStyle;rounded=0;orthogonalLoop=1;jettySize=auto;html=1;" parent="lKXdoufizGsUkh9-Anli-0" source="lKXdoufizGsUkh9-Anli-88" target="lKXdoufizGsUkh9-Anli-82" edge="1">
          <mxGeometry relative="1" as="geometry" />
        </mxCell>
        <mxCell id="lKXdoufizGsUkh9-Anli-88" value="" style="ellipse;whiteSpace=wrap;html=1;aspect=fixed;" parent="lKXdoufizGsUkh9-Anli-0" vertex="1">
          <mxGeometry x="430" y="655" width="30" height="30" as="geometry" />
        </mxCell>
        <mxCell id="lKXdoufizGsUkh9-Anli-98" style="edgeStyle=orthogonalEdgeStyle;rounded=0;orthogonalLoop=1;jettySize=auto;html=1;entryX=0.5;entryY=0;entryDx=0;entryDy=0;" parent="lKXdoufizGsUkh9-Anli-0" source="lKXdoufizGsUkh9-Anli-92" target="lKXdoufizGsUkh9-Anli-85" edge="1">
          <mxGeometry relative="1" as="geometry" />
        </mxCell>
        <mxCell id="lKXdoufizGsUkh9-Anli-92" value="" style="ellipse;whiteSpace=wrap;html=1;aspect=fixed;" parent="lKXdoufizGsUkh9-Anli-0" vertex="1">
          <mxGeometry x="430" y="435" width="30" height="30" as="geometry" />
        </mxCell>
        <mxCell id="lKXdoufizGsUkh9-Anli-99" style="edgeStyle=orthogonalEdgeStyle;rounded=0;orthogonalLoop=1;jettySize=auto;html=1;entryX=0.5;entryY=0;entryDx=0;entryDy=0;" parent="lKXdoufizGsUkh9-Anli-0" source="lKXdoufizGsUkh9-Anli-93" target="lKXdoufizGsUkh9-Anli-92" edge="1">
          <mxGeometry relative="1" as="geometry" />
        </mxCell>
        <mxCell id="lKXdoufizGsUkh9-Anli-93" value="" style="ellipse;whiteSpace=wrap;html=1;aspect=fixed;" parent="lKXdoufizGsUkh9-Anli-0" vertex="1">
          <mxGeometry x="430" y="325" width="30" height="30" as="geometry" />
        </mxCell>
        <mxCell id="lKXdoufizGsUkh9-Anli-118" style="edgeStyle=orthogonalEdgeStyle;rounded=0;orthogonalLoop=1;jettySize=auto;html=1;entryX=0.5;entryY=1;entryDx=0;entryDy=0;" parent="lKXdoufizGsUkh9-Anli-0" source="lKXdoufizGsUkh9-Anli-109" target="lKXdoufizGsUkh9-Anli-75" edge="1">
          <mxGeometry relative="1" as="geometry" />
        </mxCell>
        <mxCell id="lKXdoufizGsUkh9-Anli-109" value="" style="ellipse;whiteSpace=wrap;html=1;aspect=fixed;" parent="lKXdoufizGsUkh9-Anli-0" vertex="1">
          <mxGeometry x="1120" y="660" width="20" height="20" as="geometry" />
        </mxCell>
        <mxCell id="lKXdoufizGsUkh9-Anli-115" style="edgeStyle=orthogonalEdgeStyle;rounded=0;orthogonalLoop=1;jettySize=auto;html=1;entryX=0.5;entryY=0;entryDx=0;entryDy=0;" parent="lKXdoufizGsUkh9-Anli-0" source="lKXdoufizGsUkh9-Anli-114" target="lKXdoufizGsUkh9-Anli-143" edge="1">
          <mxGeometry relative="1" as="geometry">
            <mxPoint x="445" y="1080" as="targetPoint" />
          </mxGeometry>
        </mxCell>
        <mxCell id="lKXdoufizGsUkh9-Anli-116" value="ไม่ต้องเเก้ไขรายการสินค้า(F)" style="edgeLabel;html=1;align=center;verticalAlign=middle;resizable=0;points=[];" parent="lKXdoufizGsUkh9-Anli-115" vertex="1" connectable="0">
          <mxGeometry x="0.0074" y="2" relative="1" as="geometry">
            <mxPoint as="offset" />
          </mxGeometry>
        </mxCell>
        <mxCell id="lKXdoufizGsUkh9-Anli-119" style="edgeStyle=orthogonalEdgeStyle;rounded=0;orthogonalLoop=1;jettySize=auto;html=1;entryX=0.5;entryY=0;entryDx=0;entryDy=0;" parent="lKXdoufizGsUkh9-Anli-0" source="lKXdoufizGsUkh9-Anli-114" target="lKXdoufizGsUkh9-Anli-120" edge="1">
          <mxGeometry relative="1" as="geometry">
            <mxPoint x="660" y="960" as="targetPoint" />
          </mxGeometry>
        </mxCell>
        <mxCell id="lKXdoufizGsUkh9-Anli-146" value="ต้องการเเก้ไขรายการสินค้า" style="edgeLabel;html=1;align=center;verticalAlign=middle;resizable=0;points=[];" parent="lKXdoufizGsUkh9-Anli-119" vertex="1" connectable="0">
          <mxGeometry x="-0.5458" y="-1" relative="1" as="geometry">
            <mxPoint x="32" y="-1" as="offset" />
          </mxGeometry>
        </mxCell>
        <mxCell id="lKXdoufizGsUkh9-Anli-114" value="&lt;div style=&quot;text-align: left;&quot;&gt;&lt;span style=&quot;font-size: 14px; text-wrap-mode: nowrap;&quot;&gt;ต้องการเเก้ไขรายการสินค้า?&lt;/span&gt;&lt;/div&gt;" style="rhombus;whiteSpace=wrap;html=1;fontFamily=Sarabun;fontSource=https%3A%2F%2Ffonts.googleapis.com%2Fcss%3Ffamily%3DSarabun;" parent="lKXdoufizGsUkh9-Anli-0" vertex="1">
          <mxGeometry x="335" y="910" width="220" height="100" as="geometry" />
        </mxCell>
        <mxCell id="lKXdoufizGsUkh9-Anli-121" style="edgeStyle=orthogonalEdgeStyle;rounded=0;orthogonalLoop=1;jettySize=auto;html=1;entryX=0.5;entryY=0;entryDx=0;entryDy=0;" parent="lKXdoufizGsUkh9-Anli-0" source="lKXdoufizGsUkh9-Anli-120" target="lKXdoufizGsUkh9-Anli-124" edge="1">
          <mxGeometry relative="1" as="geometry">
            <mxPoint x="673.3749999999995" y="1110" as="targetPoint" />
          </mxGeometry>
        </mxCell>
        <mxCell id="lKXdoufizGsUkh9-Anli-122" value="ต้องการเเก้ไขจำนวนสินค้า(T)" style="edgeLabel;html=1;align=center;verticalAlign=middle;resizable=0;points=[];" parent="lKXdoufizGsUkh9-Anli-121" vertex="1" connectable="0">
          <mxGeometry x="-0.1604" y="-2" relative="1" as="geometry">
            <mxPoint as="offset" />
          </mxGeometry>
        </mxCell>
        <mxCell id="lKXdoufizGsUkh9-Anli-125" style="edgeStyle=orthogonalEdgeStyle;rounded=0;orthogonalLoop=1;jettySize=auto;html=1;entryX=0.5;entryY=0;entryDx=0;entryDy=0;" parent="lKXdoufizGsUkh9-Anli-0" source="lKXdoufizGsUkh9-Anli-120" target="lKXdoufizGsUkh9-Anli-126" edge="1">
          <mxGeometry relative="1" as="geometry">
            <mxPoint x="980" y="990" as="targetPoint" />
            <Array as="points">
              <mxPoint x="943" y="1020" />
            </Array>
          </mxGeometry>
        </mxCell>
        <mxCell id="lKXdoufizGsUkh9-Anli-128" value="ไม่ต้องการเเก้ไขจำนวนสินค้า(F)" style="edgeLabel;html=1;align=center;verticalAlign=middle;resizable=0;points=[];" parent="lKXdoufizGsUkh9-Anli-125" vertex="1" connectable="0">
          <mxGeometry x="0.6965" y="1" relative="1" as="geometry">
            <mxPoint x="-66" y="1" as="offset" />
          </mxGeometry>
        </mxCell>
        <mxCell id="lKXdoufizGsUkh9-Anli-120" value="&lt;div style=&quot;text-align: left;&quot;&gt;&lt;span style=&quot;font-size: 14px; text-wrap-mode: nowrap;&quot;&gt;ต้องการเเก้ไขจำนวนสินค้า?&lt;/span&gt;&lt;/div&gt;" style="rhombus;whiteSpace=wrap;html=1;fontFamily=Sarabun;fontSource=https%3A%2F%2Ffonts.googleapis.com%2Fcss%3Ffamily%3DSarabun;" parent="lKXdoufizGsUkh9-Anli-0" vertex="1">
          <mxGeometry x="560" y="990" width="226.75" height="60" as="geometry" />
        </mxCell>
        <mxCell id="lKXdoufizGsUkh9-Anli-140" style="edgeStyle=orthogonalEdgeStyle;rounded=0;orthogonalLoop=1;jettySize=auto;html=1;entryX=1;entryY=0.5;entryDx=0;entryDy=0;" parent="lKXdoufizGsUkh9-Anli-0" source="lKXdoufizGsUkh9-Anli-124" target="lKXdoufizGsUkh9-Anli-143" edge="1">
          <mxGeometry relative="1" as="geometry">
            <mxPoint x="470" y="1115" as="targetPoint" />
          </mxGeometry>
        </mxCell>
        <mxCell id="lKXdoufizGsUkh9-Anli-124" value="เพิ่ม/ลดจำนวนสินค้า" style="rounded=0;whiteSpace=wrap;html=1;fontFamily=Sarabun;fontSource=https%3A%2F%2Ffonts.googleapis.com%2Fcss%3Ffamily%3DSarabun;" parent="lKXdoufizGsUkh9-Anli-0" vertex="1">
          <mxGeometry x="613.3700000000001" y="1101.25" width="120" height="30" as="geometry" />
        </mxCell>
        <mxCell id="lKXdoufizGsUkh9-Anli-134" style="edgeStyle=orthogonalEdgeStyle;rounded=0;orthogonalLoop=1;jettySize=auto;html=1;entryX=0;entryY=0.5;entryDx=0;entryDy=0;" parent="lKXdoufizGsUkh9-Anli-0" source="lKXdoufizGsUkh9-Anli-126" target="lKXdoufizGsUkh9-Anli-131" edge="1">
          <mxGeometry relative="1" as="geometry" />
        </mxCell>
        <mxCell id="lKXdoufizGsUkh9-Anli-135" value="ต้องการเเก้ไขจำนวนสินค้า" style="edgeLabel;html=1;align=center;verticalAlign=middle;resizable=0;points=[];rotation=-90;" parent="lKXdoufizGsUkh9-Anli-134" vertex="1" connectable="0">
          <mxGeometry x="-0.6396" relative="1" as="geometry">
            <mxPoint x="12" as="offset" />
          </mxGeometry>
        </mxCell>
        <mxCell id="lKXdoufizGsUkh9-Anli-141" style="edgeStyle=orthogonalEdgeStyle;rounded=0;orthogonalLoop=1;jettySize=auto;html=1;entryX=1;entryY=0.5;entryDx=0;entryDy=0;" parent="lKXdoufizGsUkh9-Anli-0" source="lKXdoufizGsUkh9-Anli-126" target="lKXdoufizGsUkh9-Anli-138" edge="1">
          <mxGeometry relative="1" as="geometry">
            <Array as="points">
              <mxPoint x="943" y="1334" />
            </Array>
          </mxGeometry>
        </mxCell>
        <mxCell id="lKXdoufizGsUkh9-Anli-142" value="ไม่ต้องการเเก้ไขจำนวนสินค้า" style="edgeLabel;html=1;align=center;verticalAlign=middle;resizable=0;points=[];" parent="lKXdoufizGsUkh9-Anli-141" vertex="1" connectable="0">
          <mxGeometry x="0.4077" relative="1" as="geometry">
            <mxPoint as="offset" />
          </mxGeometry>
        </mxCell>
        <mxCell id="lKXdoufizGsUkh9-Anli-126" value="&lt;div style=&quot;text-align: left;&quot;&gt;&lt;span style=&quot;font-size: 14px; text-wrap-mode: nowrap;&quot;&gt;ต้องการเเก้ไขรายการสินค้า?&lt;/span&gt;&lt;/div&gt;" style="rhombus;whiteSpace=wrap;html=1;fontFamily=Sarabun;fontSource=https%3A%2F%2Ffonts.googleapis.com%2Fcss%3Ffamily%3DSarabun;" parent="lKXdoufizGsUkh9-Anli-0" vertex="1">
          <mxGeometry x="830" y="1040" width="226.75" height="60" as="geometry" />
        </mxCell>
        <mxCell id="lKXdoufizGsUkh9-Anli-131" value="" style="ellipse;whiteSpace=wrap;html=1;aspect=fixed;" parent="lKXdoufizGsUkh9-Anli-0" vertex="1">
          <mxGeometry x="1120" y="1060" width="20" height="20" as="geometry" />
        </mxCell>
        <mxCell id="lKXdoufizGsUkh9-Anli-132" value="" style="edgeStyle=orthogonalEdgeStyle;rounded=0;orthogonalLoop=1;jettySize=auto;html=1;entryX=0.5;entryY=1;entryDx=0;entryDy=0;" parent="lKXdoufizGsUkh9-Anli-0" source="lKXdoufizGsUkh9-Anli-59" target="lKXdoufizGsUkh9-Anli-131" edge="1">
          <mxGeometry relative="1" as="geometry">
            <mxPoint x="1860" y="1250" as="targetPoint" />
            <mxPoint x="1245" y="2010" as="sourcePoint" />
            <Array as="points">
              <mxPoint x="1130" y="1440" />
            </Array>
          </mxGeometry>
        </mxCell>
        <mxCell id="lKXdoufizGsUkh9-Anli-133" value="ไม่มีสินค้า(F)" style="edgeLabel;html=1;align=center;verticalAlign=middle;resizable=0;points=[];" parent="lKXdoufizGsUkh9-Anli-132" vertex="1" connectable="0">
          <mxGeometry x="-0.4673" y="-1" relative="1" as="geometry">
            <mxPoint as="offset" />
          </mxGeometry>
        </mxCell>
        <mxCell id="lKXdoufizGsUkh9-Anli-139" style="edgeStyle=orthogonalEdgeStyle;rounded=0;orthogonalLoop=1;jettySize=auto;html=1;entryX=0.5;entryY=0;entryDx=0;entryDy=0;" parent="lKXdoufizGsUkh9-Anli-0" source="lKXdoufizGsUkh9-Anli-138" target="lKXdoufizGsUkh9-Anli-59" edge="1">
          <mxGeometry relative="1" as="geometry" />
        </mxCell>
        <mxCell id="lKXdoufizGsUkh9-Anli-138" value="" style="ellipse;whiteSpace=wrap;html=1;aspect=fixed;" parent="lKXdoufizGsUkh9-Anli-0" vertex="1">
          <mxGeometry x="431.25" y="1320" width="27.5" height="27.5" as="geometry" />
        </mxCell>
        <mxCell id="lKXdoufizGsUkh9-Anli-145" style="edgeStyle=orthogonalEdgeStyle;rounded=0;orthogonalLoop=1;jettySize=auto;html=1;entryX=0.5;entryY=0;entryDx=0;entryDy=0;" parent="lKXdoufizGsUkh9-Anli-0" source="lKXdoufizGsUkh9-Anli-143" target="lKXdoufizGsUkh9-Anli-138" edge="1">
          <mxGeometry relative="1" as="geometry" />
        </mxCell>
        <mxCell id="lKXdoufizGsUkh9-Anli-143" value="" style="ellipse;whiteSpace=wrap;html=1;aspect=fixed;" parent="lKXdoufizGsUkh9-Anli-0" vertex="1">
          <mxGeometry x="431.25" y="1102.5" width="27.5" height="27.5" as="geometry" />
        </mxCell>
        <mxCell id="lKXdoufizGsUkh9-Anli-150" style="edgeStyle=orthogonalEdgeStyle;rounded=0;orthogonalLoop=1;jettySize=auto;html=1;entryX=0.5;entryY=0;entryDx=0;entryDy=0;" parent="lKXdoufizGsUkh9-Anli-0" target="lKXdoufizGsUkh9-Anli-47" edge="1">
          <mxGeometry relative="1" as="geometry">
            <mxPoint x="442.55999999999995" y="1620" as="sourcePoint" />
          </mxGeometry>
        </mxCell>
        <mxCell id="Yg89CHvpsKPFk7mEYiGE-74" value="&lt;span style=&quot;font-size: 14px; text-align: left; text-wrap-mode: nowrap;&quot;&gt;รวมรายการสินค้าทั้งหมดที่ลูกค้าเลือก&lt;/span&gt;" style="rounded=0;whiteSpace=wrap;html=1;fontFamily=Sarabun;fontSource=https%3A%2F%2Ffonts.googleapis.com%2Fcss%3Ffamily%3DSarabun;" vertex="1" parent="lKXdoufizGsUkh9-Anli-0">
          <mxGeometry x="317.75" y="1590" width="250" height="30" as="geometry" />
        </mxCell>
        <mxCell id="lKXdoufizGsUkh9-Anli-154" value="ฟังก์ชันการจ่ายเงิน" style="swimlane;fontFamily=Sarabun;fontSource=https%3A%2F%2Ffonts.googleapis.com%2Fcss%3Ffamily%3DSarabun;fillColor=#fa6800;fontColor=#000000;strokeColor=#C73500;" parent="WIyWlLk6GJQsqaUBKTNV-1" vertex="1">
          <mxGeometry x="225" y="2290" width="1310" height="1730" as="geometry" />
        </mxCell>
        <mxCell id="lKXdoufizGsUkh9-Anli-156" value="&lt;font data-font-src=&quot;https://fonts.googleapis.com/css?family=Sarabun&quot; face=&quot;Sarabun&quot;&gt;เริ่มต้น&lt;/font&gt;" style="ellipse;whiteSpace=wrap;html=1;" parent="lKXdoufizGsUkh9-Anli-154" vertex="1">
          <mxGeometry x="582.5" y="30" width="130" height="30" as="geometry" />
        </mxCell>
        <mxCell id="lKXdoufizGsUkh9-Anli-157" value="&lt;font face=&quot;Sarabun&quot;&gt;สิ้นสุด&lt;/font&gt;" style="ellipse;whiteSpace=wrap;html=1;" parent="lKXdoufizGsUkh9-Anli-154" vertex="1">
          <mxGeometry x="582.5" y="1643" width="130" height="30" as="geometry" />
        </mxCell>
        <mxCell id="Yg89CHvpsKPFk7mEYiGE-115" style="edgeStyle=orthogonalEdgeStyle;rounded=0;orthogonalLoop=1;jettySize=auto;html=1;entryX=0.5;entryY=0;entryDx=0;entryDy=0;" edge="1" parent="lKXdoufizGsUkh9-Anli-154" source="lKXdoufizGsUkh9-Anli-173" target="lKXdoufizGsUkh9-Anli-175">
          <mxGeometry relative="1" as="geometry" />
        </mxCell>
        <mxCell id="lKXdoufizGsUkh9-Anli-173" value="เลือกรูปเเบบการจ่ายเงิน" style="rounded=0;whiteSpace=wrap;html=1;fontFamily=Sarabun;fontSource=https%3A%2F%2Ffonts.googleapis.com%2Fcss%3Ffamily%3DSarabun;" parent="lKXdoufizGsUkh9-Anli-154" vertex="1">
          <mxGeometry x="417" y="340" width="132.5" height="30" as="geometry" />
        </mxCell>
        <mxCell id="lKXdoufizGsUkh9-Anli-180" style="edgeStyle=orthogonalEdgeStyle;rounded=0;orthogonalLoop=1;jettySize=auto;html=1;entryX=0;entryY=0.5;entryDx=0;entryDy=0;" parent="lKXdoufizGsUkh9-Anli-154" source="lKXdoufizGsUkh9-Anli-175" target="lKXdoufizGsUkh9-Anli-192" edge="1">
          <mxGeometry relative="1" as="geometry" />
        </mxCell>
        <mxCell id="lKXdoufizGsUkh9-Anli-181" value="ไม่ต้องจ่ายเเบบเงินสด(F)" style="edgeLabel;html=1;align=center;verticalAlign=middle;resizable=0;points=[];" parent="lKXdoufizGsUkh9-Anli-180" vertex="1" connectable="0">
          <mxGeometry x="-0.4317" y="1" relative="1" as="geometry">
            <mxPoint x="30" y="1" as="offset" />
          </mxGeometry>
        </mxCell>
        <mxCell id="lKXdoufizGsUkh9-Anli-185" style="edgeStyle=orthogonalEdgeStyle;rounded=0;orthogonalLoop=1;jettySize=auto;html=1;entryX=0.5;entryY=0;entryDx=0;entryDy=0;" parent="lKXdoufizGsUkh9-Anli-154" source="lKXdoufizGsUkh9-Anli-188" target="lKXdoufizGsUkh9-Anli-184" edge="1">
          <mxGeometry relative="1" as="geometry" />
        </mxCell>
        <mxCell id="lKXdoufizGsUkh9-Anli-190" value="มีเงินทอนพอ(T)" style="edgeLabel;html=1;align=center;verticalAlign=middle;resizable=0;points=[];" parent="lKXdoufizGsUkh9-Anli-185" vertex="1" connectable="0">
          <mxGeometry x="-0.1323" y="-1" relative="1" as="geometry">
            <mxPoint as="offset" />
          </mxGeometry>
        </mxCell>
        <mxCell id="Yg89CHvpsKPFk7mEYiGE-161" style="edgeStyle=orthogonalEdgeStyle;rounded=0;orthogonalLoop=1;jettySize=auto;html=1;entryX=0.5;entryY=0;entryDx=0;entryDy=0;" edge="1" parent="lKXdoufizGsUkh9-Anli-154" source="lKXdoufizGsUkh9-Anli-175" target="Yg89CHvpsKPFk7mEYiGE-132">
          <mxGeometry relative="1" as="geometry" />
        </mxCell>
        <mxCell id="lKXdoufizGsUkh9-Anli-175" value="&lt;div style=&quot;text-align: left;&quot;&gt;&lt;span style=&quot;font-size: 14px; text-wrap-mode: nowrap;&quot;&gt;รูปเเบบเงินสด?&lt;/span&gt;&lt;/div&gt;" style="rhombus;whiteSpace=wrap;html=1;fontFamily=Sarabun;fontSource=https%3A%2F%2Ffonts.googleapis.com%2Fcss%3Ffamily%3DSarabun;" parent="lKXdoufizGsUkh9-Anli-154" vertex="1">
          <mxGeometry x="413.5" y="433" width="139.5" height="60" as="geometry" />
        </mxCell>
        <mxCell id="lKXdoufizGsUkh9-Anli-182" style="edgeStyle=orthogonalEdgeStyle;rounded=0;orthogonalLoop=1;jettySize=auto;html=1;entryX=1;entryY=0.5;entryDx=0;entryDy=0;" parent="lKXdoufizGsUkh9-Anli-154" source="lKXdoufizGsUkh9-Anli-248" target="lKXdoufizGsUkh9-Anli-178" edge="1">
          <mxGeometry relative="1" as="geometry">
            <Array as="points" />
          </mxGeometry>
        </mxCell>
        <mxCell id="lKXdoufizGsUkh9-Anli-228" style="edgeStyle=orthogonalEdgeStyle;rounded=0;orthogonalLoop=1;jettySize=auto;html=1;entryX=0.5;entryY=0;entryDx=0;entryDy=0;" parent="lKXdoufizGsUkh9-Anli-154" source="lKXdoufizGsUkh9-Anli-176" target="lKXdoufizGsUkh9-Anli-230" edge="1">
          <mxGeometry relative="1" as="geometry">
            <mxPoint x="814" y="573" as="targetPoint" />
          </mxGeometry>
        </mxCell>
        <mxCell id="lKXdoufizGsUkh9-Anli-229" value="ต้องการจ่ายเงินเเบบสเเกนจ่าย(T)" style="edgeLabel;html=1;align=center;verticalAlign=middle;resizable=0;points=[];" parent="lKXdoufizGsUkh9-Anli-228" vertex="1" connectable="0">
          <mxGeometry x="-0.0913" y="3" relative="1" as="geometry">
            <mxPoint as="offset" />
          </mxGeometry>
        </mxCell>
        <mxCell id="lKXdoufizGsUkh9-Anli-251" style="edgeStyle=orthogonalEdgeStyle;rounded=0;orthogonalLoop=1;jettySize=auto;html=1;entryX=0.5;entryY=1;entryDx=0;entryDy=0;" parent="lKXdoufizGsUkh9-Anli-154" source="lKXdoufizGsUkh9-Anli-176" target="lKXdoufizGsUkh9-Anli-248" edge="1">
          <mxGeometry relative="1" as="geometry">
            <mxPoint x="927" y="209.99999999999955" as="targetPoint" />
          </mxGeometry>
        </mxCell>
        <mxCell id="lKXdoufizGsUkh9-Anli-252" value="&lt;span style=&quot;color: rgba(0, 0, 0, 0); font-family: monospace; font-size: 0px; text-align: start; background-color: rgb(27, 29, 30);&quot;&gt;%3CmxGraphModel%3E%3Croot%3E%3CmxCell%20id%3D%220%22%2F%3E%3CmxCell%20id%3D%221%22%20parent%3D%220%22%2F%3E%3CmxCell%20id%3D%222%22%20value%3D%22%E0%B9%84%E0%B8%A1%E0%B9%88%E0%B8%95%E0%B9%89%E0%B8%AD%E0%B8%87%E0%B8%81%E0%B8%B2%E0%B8%A3%E0%B8%88%E0%B9%88%E0%B8%B2%E0%B8%A2%E0%B9%80%E0%B9%80%E0%B8%9A%E0%B8%9A%E0%B8%AA%E0%B9%80%E0%B9%80%E0%B8%81%E0%B8%99%E0%B8%88%E0%B9%88%E0%B8%B2%E0%B8%A2(F)%22%20style%3D%22edgeLabel%3Bhtml%3D1%3Balign%3Dcenter%3BverticalAlign%3Dmiddle%3Bresizable%3D0%3Bpoints%3D%5B%5D%3B%22%20vertex%3D%221%22%20connectable%3D%220%22%20parent%3D%221%22%3E%3CmxGeometry%20x%3D%221307.8000000000002%22%20y%3D%222480%22%20as%3D%22geometry%22%2F%3E%3C%2FmxCell%3E%3C%2Froot%3E%3C%2FmxGraphModel%3E&lt;/span&gt;" style="edgeLabel;html=1;align=center;verticalAlign=middle;resizable=0;points=[];" parent="lKXdoufizGsUkh9-Anli-251" vertex="1" connectable="0">
          <mxGeometry x="0.0464" y="1" relative="1" as="geometry">
            <mxPoint as="offset" />
          </mxGeometry>
        </mxCell>
        <mxCell id="lKXdoufizGsUkh9-Anli-253" value="ไม่ต้องการสเเกนจ่าย(F)" style="edgeLabel;html=1;align=center;verticalAlign=middle;resizable=0;points=[];" parent="lKXdoufizGsUkh9-Anli-251" vertex="1" connectable="0">
          <mxGeometry x="0.1272" y="-2" relative="1" as="geometry">
            <mxPoint as="offset" />
          </mxGeometry>
        </mxCell>
        <mxCell id="lKXdoufizGsUkh9-Anli-176" value="&lt;div style=&quot;text-align: left;&quot;&gt;&lt;span style=&quot;font-size: 14px; text-wrap-mode: nowrap;&quot;&gt;รูปเเบบสเเกนจ่าย?&lt;/span&gt;&lt;/div&gt;" style="rhombus;whiteSpace=wrap;html=1;fontFamily=Sarabun;fontSource=https%3A%2F%2Ffonts.googleapis.com%2Fcss%3Ffamily%3DSarabun;" parent="lKXdoufizGsUkh9-Anli-154" vertex="1">
          <mxGeometry x="736.5" y="433" width="155" height="60" as="geometry" />
        </mxCell>
        <mxCell id="Yg89CHvpsKPFk7mEYiGE-113" style="edgeStyle=orthogonalEdgeStyle;rounded=0;orthogonalLoop=1;jettySize=auto;html=1;entryX=0.5;entryY=0;entryDx=0;entryDy=0;" edge="1" parent="lKXdoufizGsUkh9-Anli-154" source="lKXdoufizGsUkh9-Anli-178" target="Yg89CHvpsKPFk7mEYiGE-112">
          <mxGeometry relative="1" as="geometry" />
        </mxCell>
        <mxCell id="lKXdoufizGsUkh9-Anli-178" value="" style="ellipse;whiteSpace=wrap;html=1;aspect=fixed;" parent="lKXdoufizGsUkh9-Anli-154" vertex="1">
          <mxGeometry x="632.5" y="90" width="30" height="30" as="geometry" />
        </mxCell>
        <mxCell id="lKXdoufizGsUkh9-Anli-179" value="" style="edgeStyle=orthogonalEdgeStyle;rounded=0;orthogonalLoop=1;jettySize=auto;html=1;entryX=0.5;entryY=0;entryDx=0;entryDy=0;" parent="lKXdoufizGsUkh9-Anli-154" source="lKXdoufizGsUkh9-Anli-156" target="lKXdoufizGsUkh9-Anli-178" edge="1">
          <mxGeometry relative="1" as="geometry">
            <mxPoint x="1083" y="2350" as="sourcePoint" />
            <mxPoint x="1083" y="2410" as="targetPoint" />
          </mxGeometry>
        </mxCell>
        <mxCell id="lKXdoufizGsUkh9-Anli-197" style="edgeStyle=orthogonalEdgeStyle;rounded=0;orthogonalLoop=1;jettySize=auto;html=1;entryX=0.5;entryY=0;entryDx=0;entryDy=0;" parent="lKXdoufizGsUkh9-Anli-154" source="lKXdoufizGsUkh9-Anli-204" target="lKXdoufizGsUkh9-Anli-196" edge="1">
          <mxGeometry relative="1" as="geometry" />
        </mxCell>
        <mxCell id="lKXdoufizGsUkh9-Anli-184" value="&lt;span style=&quot;color: rgb(0, 0, 0);&quot;&gt;รับเฉพาะเงินบาท&lt;/span&gt;&lt;div&gt;-แบงค์ 100 ,50 ,20&lt;/div&gt;&lt;div&gt;-เหรียญ 1 ,2 ,5 ,10&lt;/div&gt;" style="shape=parallelogram;perimeter=parallelogramPerimeter;whiteSpace=wrap;html=1;fixedSize=1;fontFamily=Sarabun;fontSource=https%3A%2F%2Ffonts.googleapis.com%2Fcss%3Ffamily%3DSarabun;fontColor=default;fontStyle=0" parent="lKXdoufizGsUkh9-Anli-154" vertex="1">
          <mxGeometry x="403.25" y="760" width="160" height="55" as="geometry" />
        </mxCell>
        <mxCell id="lKXdoufizGsUkh9-Anli-188" value="&lt;div style=&quot;text-align: left;&quot;&gt;&lt;span style=&quot;font-size: 14px; text-wrap-mode: nowrap;&quot;&gt;มีเงินทอนพอ?&lt;/span&gt;&lt;/div&gt;" style="rhombus;whiteSpace=wrap;html=1;fontFamily=Sarabun;fontSource=https%3A%2F%2Ffonts.googleapis.com%2Fcss%3Ffamily%3DSarabun;" parent="lKXdoufizGsUkh9-Anli-154" vertex="1">
          <mxGeometry x="413.5" y="650" width="139.5" height="60" as="geometry" />
        </mxCell>
        <mxCell id="lKXdoufizGsUkh9-Anli-193" style="edgeStyle=orthogonalEdgeStyle;rounded=0;orthogonalLoop=1;jettySize=auto;html=1;entryX=0;entryY=0.5;entryDx=0;entryDy=0;" parent="lKXdoufizGsUkh9-Anli-154" source="lKXdoufizGsUkh9-Anli-192" target="lKXdoufizGsUkh9-Anli-176" edge="1">
          <mxGeometry relative="1" as="geometry" />
        </mxCell>
        <mxCell id="lKXdoufizGsUkh9-Anli-192" value="" style="ellipse;whiteSpace=wrap;html=1;aspect=fixed;" parent="lKXdoufizGsUkh9-Anli-154" vertex="1">
          <mxGeometry x="695" y="453" width="20" height="20" as="geometry" />
        </mxCell>
        <mxCell id="lKXdoufizGsUkh9-Anli-191" style="edgeStyle=orthogonalEdgeStyle;rounded=0;orthogonalLoop=1;jettySize=auto;html=1;" parent="lKXdoufizGsUkh9-Anli-154" source="lKXdoufizGsUkh9-Anli-188" target="lKXdoufizGsUkh9-Anli-192" edge="1">
          <mxGeometry relative="1" as="geometry">
            <mxPoint x="705" y="513" as="targetPoint" />
          </mxGeometry>
        </mxCell>
        <mxCell id="lKXdoufizGsUkh9-Anli-194" value="มีเงินทอนไม่พอ(F)" style="edgeLabel;html=1;align=center;verticalAlign=middle;resizable=0;points=[];" parent="lKXdoufizGsUkh9-Anli-191" vertex="1" connectable="0">
          <mxGeometry x="-0.5941" y="-1" relative="1" as="geometry">
            <mxPoint as="offset" />
          </mxGeometry>
        </mxCell>
        <mxCell id="lKXdoufizGsUkh9-Anli-199" style="edgeStyle=orthogonalEdgeStyle;rounded=0;orthogonalLoop=1;jettySize=auto;html=1;" parent="lKXdoufizGsUkh9-Anli-154" source="lKXdoufizGsUkh9-Anli-196" target="lKXdoufizGsUkh9-Anli-198" edge="1">
          <mxGeometry relative="1" as="geometry" />
        </mxCell>
        <mxCell id="lKXdoufizGsUkh9-Anli-196" value="&lt;span style=&quot;color: rgb(0, 0, 0); background-color: rgb(251, 251, 251);&quot;&gt;รับเงิน&lt;/span&gt;" style="rounded=0;whiteSpace=wrap;html=1;fontFamily=Sarabun;fontSource=https%3A%2F%2Ffonts.googleapis.com%2Fcss%3Ffamily%3DSarabun;" parent="lKXdoufizGsUkh9-Anli-154" vertex="1">
          <mxGeometry x="417" y="892.5" width="132.5" height="30" as="geometry" />
        </mxCell>
        <mxCell id="lKXdoufizGsUkh9-Anli-200" style="edgeStyle=orthogonalEdgeStyle;rounded=0;orthogonalLoop=1;jettySize=auto;html=1;entryX=0.5;entryY=1;entryDx=0;entryDy=0;" parent="lKXdoufizGsUkh9-Anli-154" source="lKXdoufizGsUkh9-Anli-198" target="lKXdoufizGsUkh9-Anli-201" edge="1">
          <mxGeometry relative="1" as="geometry">
            <mxPoint x="135" y="973.5" as="targetPoint" />
          </mxGeometry>
        </mxCell>
        <mxCell id="lKXdoufizGsUkh9-Anli-202" value="ไม่เพียงพอ(F)" style="edgeLabel;html=1;align=center;verticalAlign=middle;resizable=0;points=[];" parent="lKXdoufizGsUkh9-Anli-200" vertex="1" connectable="0">
          <mxGeometry x="0.4411" y="-4" relative="1" as="geometry">
            <mxPoint as="offset" />
          </mxGeometry>
        </mxCell>
        <mxCell id="lKXdoufizGsUkh9-Anli-206" style="edgeStyle=orthogonalEdgeStyle;rounded=0;orthogonalLoop=1;jettySize=auto;html=1;entryX=0.5;entryY=0;entryDx=0;entryDy=0;" parent="lKXdoufizGsUkh9-Anli-154" source="lKXdoufizGsUkh9-Anli-198" target="lKXdoufizGsUkh9-Anli-208" edge="1">
          <mxGeometry relative="1" as="geometry">
            <mxPoint x="483.25" y="1130" as="targetPoint" />
          </mxGeometry>
        </mxCell>
        <mxCell id="lKXdoufizGsUkh9-Anli-207" value="มีเงินเพียงพอเเล้ว(T)" style="edgeLabel;html=1;align=center;verticalAlign=middle;resizable=0;points=[];" parent="lKXdoufizGsUkh9-Anli-206" vertex="1" connectable="0">
          <mxGeometry x="-0.1618" y="-4" relative="1" as="geometry">
            <mxPoint as="offset" />
          </mxGeometry>
        </mxCell>
        <mxCell id="lKXdoufizGsUkh9-Anli-198" value="&lt;div style=&quot;text-align: left;&quot;&gt;&lt;span style=&quot;font-size: 14px; text-wrap-mode: nowrap;&quot;&gt;ตรวจสอบเงินเพียงพอหรือไม่&lt;/span&gt;&lt;/div&gt;" style="rhombus;whiteSpace=wrap;html=1;fontFamily=Sarabun;fontSource=https%3A%2F%2Ffonts.googleapis.com%2Fcss%3Ffamily%3DSarabun;" parent="lKXdoufizGsUkh9-Anli-154" vertex="1">
          <mxGeometry x="375" y="960" width="216.5" height="107" as="geometry" />
        </mxCell>
        <mxCell id="lKXdoufizGsUkh9-Anli-203" style="edgeStyle=orthogonalEdgeStyle;rounded=0;orthogonalLoop=1;jettySize=auto;html=1;entryX=0;entryY=0.5;entryDx=0;entryDy=0;" parent="lKXdoufizGsUkh9-Anli-154" source="lKXdoufizGsUkh9-Anli-201" target="lKXdoufizGsUkh9-Anli-204" edge="1">
          <mxGeometry relative="1" as="geometry" />
        </mxCell>
        <mxCell id="lKXdoufizGsUkh9-Anli-201" value="เเสดงจำนวนเงินที่ลูกค้า&lt;div&gt;ต้องจ่ายเพิ่ม&lt;/div&gt;" style="shape=parallelogram;perimeter=parallelogramPerimeter;whiteSpace=wrap;html=1;fixedSize=1;fontFamily=Sarabun;fontSource=https%3A%2F%2Ffonts.googleapis.com%2Fcss%3Ffamily%3DSarabun;" parent="lKXdoufizGsUkh9-Anli-154" vertex="1">
          <mxGeometry x="165" y="825" width="160" height="55" as="geometry" />
        </mxCell>
        <mxCell id="lKXdoufizGsUkh9-Anli-204" value="" style="ellipse;whiteSpace=wrap;html=1;aspect=fixed;" parent="lKXdoufizGsUkh9-Anli-154" vertex="1">
          <mxGeometry x="468.25" y="837.5" width="30" height="30" as="geometry" />
        </mxCell>
        <mxCell id="lKXdoufizGsUkh9-Anli-205" value="" style="edgeStyle=orthogonalEdgeStyle;rounded=0;orthogonalLoop=1;jettySize=auto;html=1;entryX=0.5;entryY=0;entryDx=0;entryDy=0;" parent="lKXdoufizGsUkh9-Anli-154" source="lKXdoufizGsUkh9-Anli-184" target="lKXdoufizGsUkh9-Anli-204" edge="1">
          <mxGeometry relative="1" as="geometry">
            <mxPoint x="918" y="3105" as="sourcePoint" />
            <mxPoint x="918" y="3183" as="targetPoint" />
          </mxGeometry>
        </mxCell>
        <mxCell id="lKXdoufizGsUkh9-Anli-209" style="edgeStyle=orthogonalEdgeStyle;rounded=0;orthogonalLoop=1;jettySize=auto;html=1;entryX=0.5;entryY=0;entryDx=0;entryDy=0;" parent="lKXdoufizGsUkh9-Anli-154" source="lKXdoufizGsUkh9-Anli-208" target="lKXdoufizGsUkh9-Anli-214" edge="1">
          <mxGeometry relative="1" as="geometry">
            <mxPoint x="483.24999999999955" y="1299.9999999999995" as="targetPoint" />
          </mxGeometry>
        </mxCell>
        <mxCell id="lKXdoufizGsUkh9-Anli-210" value="ไม่มีเงินต้องทอน(F)" style="edgeLabel;html=1;align=center;verticalAlign=middle;resizable=0;points=[];" parent="lKXdoufizGsUkh9-Anli-209" vertex="1" connectable="0">
          <mxGeometry x="0.0394" y="-1" relative="1" as="geometry">
            <mxPoint as="offset" />
          </mxGeometry>
        </mxCell>
        <mxCell id="lKXdoufizGsUkh9-Anli-208" value="&lt;div style=&quot;text-align: left;&quot;&gt;&lt;span style=&quot;font-size: 14px; text-wrap-mode: nowrap;&quot;&gt;มีเงินต้องทอนไหม?&lt;/span&gt;&lt;/div&gt;" style="rhombus;whiteSpace=wrap;html=1;fontFamily=Sarabun;fontSource=https%3A%2F%2Ffonts.googleapis.com%2Fcss%3Ffamily%3DSarabun;" parent="lKXdoufizGsUkh9-Anli-154" vertex="1">
          <mxGeometry x="375" y="1130" width="216.5" height="107" as="geometry" />
        </mxCell>
        <mxCell id="lKXdoufizGsUkh9-Anli-216" style="edgeStyle=orthogonalEdgeStyle;rounded=0;orthogonalLoop=1;jettySize=auto;html=1;entryX=1;entryY=0.5;entryDx=0;entryDy=0;exitX=0.5;exitY=1;exitDx=0;exitDy=0;" parent="lKXdoufizGsUkh9-Anli-154" source="lKXdoufizGsUkh9-Anli-211" target="lKXdoufizGsUkh9-Anli-214" edge="1">
          <mxGeometry relative="1" as="geometry">
            <Array as="points">
              <mxPoint x="688" y="1325" />
            </Array>
          </mxGeometry>
        </mxCell>
        <mxCell id="lKXdoufizGsUkh9-Anli-211" value="ทอนเงินโดยทอนเงินที่มากที่สุดก่อน" style="rounded=0;whiteSpace=wrap;html=1;fontFamily=Sarabun;fontSource=https%3A%2F%2Ffonts.googleapis.com%2Fcss%3Ffamily%3DSarabun;" parent="lKXdoufizGsUkh9-Anli-154" vertex="1">
          <mxGeometry x="621.5" y="1230" width="132.5" height="37" as="geometry" />
        </mxCell>
        <mxCell id="lKXdoufizGsUkh9-Anli-212" style="edgeStyle=orthogonalEdgeStyle;rounded=0;orthogonalLoop=1;jettySize=auto;html=1;entryX=0.5;entryY=0;entryDx=0;entryDy=0;" parent="lKXdoufizGsUkh9-Anli-154" source="lKXdoufizGsUkh9-Anli-208" target="lKXdoufizGsUkh9-Anli-211" edge="1">
          <mxGeometry relative="1" as="geometry" />
        </mxCell>
        <mxCell id="lKXdoufizGsUkh9-Anli-213" value="มีเงินต้องทอน(T)" style="edgeLabel;html=1;align=center;verticalAlign=middle;resizable=0;points=[];" parent="lKXdoufizGsUkh9-Anli-212" vertex="1" connectable="0">
          <mxGeometry x="-0.3337" y="1" relative="1" as="geometry">
            <mxPoint as="offset" />
          </mxGeometry>
        </mxCell>
        <mxCell id="lKXdoufizGsUkh9-Anli-258" style="edgeStyle=orthogonalEdgeStyle;rounded=0;orthogonalLoop=1;jettySize=auto;html=1;entryX=0;entryY=0.5;entryDx=0;entryDy=0;" parent="lKXdoufizGsUkh9-Anli-154" source="lKXdoufizGsUkh9-Anli-214" target="lKXdoufizGsUkh9-Anli-256" edge="1">
          <mxGeometry relative="1" as="geometry">
            <mxPoint x="483.25" y="1443" as="targetPoint" />
            <Array as="points">
              <mxPoint x="485" y="1478" />
            </Array>
          </mxGeometry>
        </mxCell>
        <mxCell id="lKXdoufizGsUkh9-Anli-214" value="" style="ellipse;whiteSpace=wrap;html=1;aspect=fixed;" parent="lKXdoufizGsUkh9-Anli-154" vertex="1">
          <mxGeometry x="468.25" y="1310" width="30" height="30" as="geometry" />
        </mxCell>
        <mxCell id="lKXdoufizGsUkh9-Anli-218" style="edgeStyle=orthogonalEdgeStyle;rounded=0;orthogonalLoop=1;jettySize=auto;html=1;entryX=0.5;entryY=0;entryDx=0;entryDy=0;" parent="lKXdoufizGsUkh9-Anli-154" source="lKXdoufizGsUkh9-Anli-217" target="lKXdoufizGsUkh9-Anli-157" edge="1">
          <mxGeometry relative="1" as="geometry" />
        </mxCell>
        <mxCell id="lKXdoufizGsUkh9-Anli-217" value="&lt;div&gt;&lt;span style=&quot;text-align: left; text-wrap-mode: nowrap;&quot;&gt;รวมยอดขาย&amp;nbsp;&lt;/span&gt;&lt;/div&gt;" style="rounded=0;whiteSpace=wrap;html=1;fontFamily=Sarabun;fontSource=https%3A%2F%2Ffonts.googleapis.com%2Fcss%3Ffamily%3DSarabun;fontSize=11;" parent="lKXdoufizGsUkh9-Anli-154" vertex="1">
          <mxGeometry x="562.5" y="1553" width="170" height="44.53" as="geometry" />
        </mxCell>
        <mxCell id="lKXdoufizGsUkh9-Anli-232" style="edgeStyle=orthogonalEdgeStyle;rounded=0;orthogonalLoop=1;jettySize=auto;html=1;" parent="lKXdoufizGsUkh9-Anli-154" source="lKXdoufizGsUkh9-Anli-230" target="lKXdoufizGsUkh9-Anli-231" edge="1">
          <mxGeometry relative="1" as="geometry" />
        </mxCell>
        <mxCell id="lKXdoufizGsUkh9-Anli-230" value="เเสดง QR Code" style="rounded=0;whiteSpace=wrap;html=1;fontFamily=Sarabun;fontSource=https%3A%2F%2Ffonts.googleapis.com%2Fcss%3Ffamily%3DSarabun;" parent="lKXdoufizGsUkh9-Anli-154" vertex="1">
          <mxGeometry x="754" y="569.25" width="120" height="30" as="geometry" />
        </mxCell>
        <mxCell id="lKXdoufizGsUkh9-Anli-243" style="edgeStyle=orthogonalEdgeStyle;rounded=0;orthogonalLoop=1;jettySize=auto;html=1;entryX=0.5;entryY=0;entryDx=0;entryDy=0;" parent="lKXdoufizGsUkh9-Anli-154" source="lKXdoufizGsUkh9-Anli-231" target="lKXdoufizGsUkh9-Anli-241" edge="1">
          <mxGeometry relative="1" as="geometry" />
        </mxCell>
        <mxCell id="lKXdoufizGsUkh9-Anli-231" value="นับเวลาการเเสกนจ่าย" style="rounded=0;whiteSpace=wrap;html=1;fontFamily=Sarabun;fontSource=https%3A%2F%2Ffonts.googleapis.com%2Fcss%3Ffamily%3DSarabun;" parent="lKXdoufizGsUkh9-Anli-154" vertex="1">
          <mxGeometry x="754" y="633" width="120" height="30" as="geometry" />
        </mxCell>
        <mxCell id="lKXdoufizGsUkh9-Anli-237" style="edgeStyle=orthogonalEdgeStyle;rounded=0;orthogonalLoop=1;jettySize=auto;html=1;entryX=1;entryY=0.5;entryDx=0;entryDy=0;" parent="lKXdoufizGsUkh9-Anli-154" source="lKXdoufizGsUkh9-Anli-234" target="lKXdoufizGsUkh9-Anli-256" edge="1">
          <mxGeometry relative="1" as="geometry">
            <mxPoint x="815" y="1193" as="targetPoint" />
            <Array as="points">
              <mxPoint x="815" y="1478" />
            </Array>
          </mxGeometry>
        </mxCell>
        <mxCell id="lKXdoufizGsUkh9-Anli-238" value="จ่ายเงินเเล้ว(T)" style="edgeLabel;html=1;align=center;verticalAlign=middle;resizable=0;points=[];" parent="lKXdoufizGsUkh9-Anli-237" vertex="1" connectable="0">
          <mxGeometry x="-0.0533" y="1" relative="1" as="geometry">
            <mxPoint as="offset" />
          </mxGeometry>
        </mxCell>
        <mxCell id="lKXdoufizGsUkh9-Anli-239" style="edgeStyle=orthogonalEdgeStyle;rounded=0;orthogonalLoop=1;jettySize=auto;html=1;entryX=0.5;entryY=1;entryDx=0;entryDy=0;" parent="lKXdoufizGsUkh9-Anli-154" source="lKXdoufizGsUkh9-Anli-234" target="lKXdoufizGsUkh9-Anli-235" edge="1">
          <mxGeometry relative="1" as="geometry" />
        </mxCell>
        <mxCell id="lKXdoufizGsUkh9-Anli-240" value="ยังไม่จ่ายเงิน(F)" style="edgeLabel;html=1;align=center;verticalAlign=middle;resizable=0;points=[];" parent="lKXdoufizGsUkh9-Anli-239" vertex="1" connectable="0">
          <mxGeometry x="-0.5518" y="1" relative="1" as="geometry">
            <mxPoint x="18" y="1" as="offset" />
          </mxGeometry>
        </mxCell>
        <mxCell id="lKXdoufizGsUkh9-Anli-234" value="เช็คการจ่ายเงิน?" style="rhombus;whiteSpace=wrap;html=1;fontColor=default;" parent="lKXdoufizGsUkh9-Anli-154" vertex="1">
          <mxGeometry x="751" y="740.5" width="126" height="70" as="geometry" />
        </mxCell>
        <mxCell id="lKXdoufizGsUkh9-Anli-245" style="edgeStyle=orthogonalEdgeStyle;rounded=0;orthogonalLoop=1;jettySize=auto;html=1;entryX=1;entryY=0.5;entryDx=0;entryDy=0;" parent="lKXdoufizGsUkh9-Anli-154" source="lKXdoufizGsUkh9-Anli-235" target="lKXdoufizGsUkh9-Anli-241" edge="1">
          <mxGeometry relative="1" as="geometry" />
        </mxCell>
        <mxCell id="lKXdoufizGsUkh9-Anli-246" value="ยังไม่ครบ(F)" style="edgeLabel;html=1;align=center;verticalAlign=middle;resizable=0;points=[];" parent="lKXdoufizGsUkh9-Anli-245" vertex="1" connectable="0">
          <mxGeometry x="0.2507" y="-1" relative="1" as="geometry">
            <mxPoint x="14" as="offset" />
          </mxGeometry>
        </mxCell>
        <mxCell id="lKXdoufizGsUkh9-Anli-254" style="edgeStyle=orthogonalEdgeStyle;rounded=0;orthogonalLoop=1;jettySize=auto;html=1;entryX=1;entryY=0.5;entryDx=0;entryDy=0;" parent="lKXdoufizGsUkh9-Anli-154" source="lKXdoufizGsUkh9-Anli-235" target="lKXdoufizGsUkh9-Anli-248" edge="1">
          <mxGeometry relative="1" as="geometry" />
        </mxCell>
        <mxCell id="lKXdoufizGsUkh9-Anli-255" value="ครบ5นาทีเเล้ว(T)" style="edgeLabel;html=1;align=center;verticalAlign=middle;resizable=0;points=[];" parent="lKXdoufizGsUkh9-Anli-254" vertex="1" connectable="0">
          <mxGeometry x="-0.482" y="3" relative="1" as="geometry">
            <mxPoint as="offset" />
          </mxGeometry>
        </mxCell>
        <mxCell id="lKXdoufizGsUkh9-Anli-235" value="ครบ5นาที?" style="rhombus;whiteSpace=wrap;html=1;fontColor=default;" parent="lKXdoufizGsUkh9-Anli-154" vertex="1">
          <mxGeometry x="925" y="669.5" width="126" height="70" as="geometry" />
        </mxCell>
        <mxCell id="lKXdoufizGsUkh9-Anli-244" style="edgeStyle=orthogonalEdgeStyle;rounded=0;orthogonalLoop=1;jettySize=auto;html=1;entryX=0.5;entryY=0;entryDx=0;entryDy=0;" parent="lKXdoufizGsUkh9-Anli-154" source="lKXdoufizGsUkh9-Anli-241" target="lKXdoufizGsUkh9-Anli-234" edge="1">
          <mxGeometry relative="1" as="geometry" />
        </mxCell>
        <mxCell id="lKXdoufizGsUkh9-Anli-241" value="" style="ellipse;whiteSpace=wrap;html=1;aspect=fixed;" parent="lKXdoufizGsUkh9-Anli-154" vertex="1">
          <mxGeometry x="802.5" y="693" width="23" height="23" as="geometry" />
        </mxCell>
        <mxCell id="lKXdoufizGsUkh9-Anli-248" value="" style="ellipse;whiteSpace=wrap;html=1;aspect=fixed;" parent="lKXdoufizGsUkh9-Anli-154" vertex="1">
          <mxGeometry x="915" y="93" width="24" height="24" as="geometry" />
        </mxCell>
        <mxCell id="lKXdoufizGsUkh9-Anli-257" style="edgeStyle=orthogonalEdgeStyle;rounded=0;orthogonalLoop=1;jettySize=auto;html=1;entryX=0.5;entryY=0;entryDx=0;entryDy=0;" parent="lKXdoufizGsUkh9-Anli-154" source="lKXdoufizGsUkh9-Anli-256" target="lKXdoufizGsUkh9-Anli-217" edge="1">
          <mxGeometry relative="1" as="geometry" />
        </mxCell>
        <mxCell id="lKXdoufizGsUkh9-Anli-256" value="" style="ellipse;whiteSpace=wrap;html=1;aspect=fixed;" parent="lKXdoufizGsUkh9-Anli-154" vertex="1">
          <mxGeometry x="632.5" y="1463" width="30" height="30" as="geometry" />
        </mxCell>
        <mxCell id="Yg89CHvpsKPFk7mEYiGE-107" style="edgeStyle=orthogonalEdgeStyle;rounded=0;orthogonalLoop=1;jettySize=auto;html=1;entryX=1;entryY=0.5;entryDx=0;entryDy=0;" edge="1" parent="lKXdoufizGsUkh9-Anli-154" source="Yg89CHvpsKPFk7mEYiGE-105" target="lKXdoufizGsUkh9-Anli-173">
          <mxGeometry relative="1" as="geometry">
            <mxPoint x="483" y="400" as="targetPoint" />
            <Array as="points">
              <mxPoint x="645" y="355" />
            </Array>
          </mxGeometry>
        </mxCell>
        <mxCell id="Yg89CHvpsKPFk7mEYiGE-108" value="ไม่ต้องการเลือกสินค้าใหม่(F)" style="edgeLabel;html=1;align=center;verticalAlign=middle;resizable=0;points=[];" vertex="1" connectable="0" parent="Yg89CHvpsKPFk7mEYiGE-107">
          <mxGeometry x="-0.0421" y="3" relative="1" as="geometry">
            <mxPoint x="14" y="-28" as="offset" />
          </mxGeometry>
        </mxCell>
        <mxCell id="Yg89CHvpsKPFk7mEYiGE-109" style="edgeStyle=orthogonalEdgeStyle;rounded=0;orthogonalLoop=1;jettySize=auto;html=1;entryX=1;entryY=0.5;entryDx=0;entryDy=0;" edge="1" parent="lKXdoufizGsUkh9-Anli-154" source="Yg89CHvpsKPFk7mEYiGE-105" target="Yg89CHvpsKPFk7mEYiGE-106">
          <mxGeometry relative="1" as="geometry" />
        </mxCell>
        <mxCell id="Yg89CHvpsKPFk7mEYiGE-110" value="ต้องการเลือกสินค้าใหม่(T)" style="edgeLabel;html=1;align=center;verticalAlign=middle;resizable=0;points=[];" vertex="1" connectable="0" parent="Yg89CHvpsKPFk7mEYiGE-109">
          <mxGeometry x="0.156" y="4" relative="1" as="geometry">
            <mxPoint x="7" y="-4" as="offset" />
          </mxGeometry>
        </mxCell>
        <mxCell id="Yg89CHvpsKPFk7mEYiGE-105" value="&lt;div style=&quot;text-align: left;&quot;&gt;&lt;span style=&quot;font-size: 14px; text-wrap-mode: nowrap;&quot;&gt;ต้องการเลือกสินค้าใหม่?&lt;/span&gt;&lt;/div&gt;" style="rhombus;whiteSpace=wrap;html=1;fontFamily=Sarabun;fontSource=https%3A%2F%2Ffonts.googleapis.com%2Fcss%3Ffamily%3DSarabun;" vertex="1" parent="lKXdoufizGsUkh9-Anli-154">
          <mxGeometry x="555" y="220" width="185" height="75" as="geometry" />
        </mxCell>
        <mxCell id="Yg89CHvpsKPFk7mEYiGE-106" value="&lt;font data-font-src=&quot;https://fonts.googleapis.com/css?family=Sarabun&quot; face=&quot;Sarabun&quot;&gt;ฟังก์ชันซื้อ&lt;/font&gt;&lt;span style=&quot;font-family: Sarabun;&quot;&gt;สินค้า&lt;/span&gt;" style="shape=process;whiteSpace=wrap;html=1;backgroundOutline=1;fillColor=#0050ef;fontColor=#ffffff;strokeColor=#001DBC;" vertex="1" parent="lKXdoufizGsUkh9-Anli-154">
          <mxGeometry x="175" y="242.5" width="195" height="30" as="geometry" />
        </mxCell>
        <mxCell id="Yg89CHvpsKPFk7mEYiGE-116" style="edgeStyle=orthogonalEdgeStyle;rounded=0;orthogonalLoop=1;jettySize=auto;html=1;entryX=0.5;entryY=0;entryDx=0;entryDy=0;" edge="1" parent="lKXdoufizGsUkh9-Anli-154" source="Yg89CHvpsKPFk7mEYiGE-112" target="Yg89CHvpsKPFk7mEYiGE-105">
          <mxGeometry relative="1" as="geometry" />
        </mxCell>
        <mxCell id="Yg89CHvpsKPFk7mEYiGE-112" value="รับค่าราคา" style="shape=parallelogram;perimeter=parallelogramPerimeter;whiteSpace=wrap;html=1;fixedSize=1;fontFamily=Sarabun;fontSource=https%3A%2F%2Ffonts.googleapis.com%2Fcss%3Ffamily%3DSarabun;" vertex="1" parent="lKXdoufizGsUkh9-Anli-154">
          <mxGeometry x="580" y="150" width="135" height="30" as="geometry" />
        </mxCell>
        <mxCell id="Yg89CHvpsKPFk7mEYiGE-163" style="edgeStyle=orthogonalEdgeStyle;rounded=0;orthogonalLoop=1;jettySize=auto;html=1;entryX=0.5;entryY=0;entryDx=0;entryDy=0;" edge="1" parent="lKXdoufizGsUkh9-Anli-154" source="Yg89CHvpsKPFk7mEYiGE-132" target="Yg89CHvpsKPFk7mEYiGE-158">
          <mxGeometry relative="1" as="geometry" />
        </mxCell>
        <mxCell id="Yg89CHvpsKPFk7mEYiGE-132" value="&lt;span style=&quot;color: rgb(18, 18, 18); font-family: Sarabun; font-weight: 700; text-wrap-mode: nowrap;&quot;&gt;ฟังก์ชันสรุปยอดเงินในเครื่อง&lt;/span&gt;" style="shape=process;whiteSpace=wrap;html=1;backgroundOutline=1;fillColor=#d80073;fontColor=#ffffff;strokeColor=#A50040;" vertex="1" parent="lKXdoufizGsUkh9-Anli-154">
          <mxGeometry x="385.75" y="520" width="195" height="30" as="geometry" />
        </mxCell>
        <mxCell id="Yg89CHvpsKPFk7mEYiGE-164" style="edgeStyle=orthogonalEdgeStyle;rounded=0;orthogonalLoop=1;jettySize=auto;html=1;entryX=0.5;entryY=0;entryDx=0;entryDy=0;" edge="1" parent="lKXdoufizGsUkh9-Anli-154" source="Yg89CHvpsKPFk7mEYiGE-158" target="lKXdoufizGsUkh9-Anli-188">
          <mxGeometry relative="1" as="geometry" />
        </mxCell>
        <mxCell id="Yg89CHvpsKPFk7mEYiGE-158" value="รับค่าเหรียญเเละธนบัตรที่เหลือในตู้" style="shape=parallelogram;perimeter=parallelogramPerimeter;whiteSpace=wrap;html=1;fixedSize=1;fontFamily=Sarabun;fontSource=https%3A%2F%2Ffonts.googleapis.com%2Fcss%3Ffamily%3DSarabun;" vertex="1" parent="lKXdoufizGsUkh9-Anli-154">
          <mxGeometry x="369.75" y="580" width="227" height="30" as="geometry" />
        </mxCell>
        <mxCell id="Yg89CHvpsKPFk7mEYiGE-0" value="ฟังก์ชันเติมสต็อกเเละเติมเหรียญ/ธนบัตรในเครื่อง(เฉพาะพนักงาน)" style="swimlane;fontFamily=Sarabun;fontSource=https%3A%2F%2Ffonts.googleapis.com%2Fcss%3Ffamily%3DSarabun;fillColor=#008a00;fontColor=#ffffff;strokeColor=#005700;" vertex="1" parent="WIyWlLk6GJQsqaUBKTNV-1">
          <mxGeometry x="-840" y="1710" width="880" height="690" as="geometry" />
        </mxCell>
        <mxCell id="Yg89CHvpsKPFk7mEYiGE-2" value="&lt;font data-font-src=&quot;https://fonts.googleapis.com/css?family=Sarabun&quot; face=&quot;Sarabun&quot;&gt;เริ่มต้น&lt;/font&gt;" style="ellipse;whiteSpace=wrap;html=1;" vertex="1" parent="Yg89CHvpsKPFk7mEYiGE-0">
          <mxGeometry x="372.44" y="30" width="130" height="30" as="geometry" />
        </mxCell>
        <mxCell id="Yg89CHvpsKPFk7mEYiGE-3" value="&lt;font face=&quot;Sarabun&quot;&gt;สิ้นสุด&lt;/font&gt;" style="ellipse;whiteSpace=wrap;html=1;" vertex="1" parent="Yg89CHvpsKPFk7mEYiGE-0">
          <mxGeometry x="373.5" y="640" width="130" height="30" as="geometry" />
        </mxCell>
        <mxCell id="Yg89CHvpsKPFk7mEYiGE-34" style="edgeStyle=orthogonalEdgeStyle;rounded=0;orthogonalLoop=1;jettySize=auto;html=1;entryX=0;entryY=0.5;entryDx=0;entryDy=0;" edge="1" parent="Yg89CHvpsKPFk7mEYiGE-0" source="Yg89CHvpsKPFk7mEYiGE-27" target="Yg89CHvpsKPFk7mEYiGE-28">
          <mxGeometry relative="1" as="geometry" />
        </mxCell>
        <mxCell id="Yg89CHvpsKPFk7mEYiGE-35" value="ไม่ใช่ประเภทขนม(F)" style="edgeLabel;html=1;align=center;verticalAlign=middle;resizable=0;points=[];" vertex="1" connectable="0" parent="Yg89CHvpsKPFk7mEYiGE-34">
          <mxGeometry x="-0.6349" y="2" relative="1" as="geometry">
            <mxPoint x="43" y="2" as="offset" />
          </mxGeometry>
        </mxCell>
        <mxCell id="Yg89CHvpsKPFk7mEYiGE-36" style="edgeStyle=orthogonalEdgeStyle;rounded=0;orthogonalLoop=1;jettySize=auto;html=1;entryX=0.5;entryY=0;entryDx=0;entryDy=0;" edge="1" parent="Yg89CHvpsKPFk7mEYiGE-0" source="Yg89CHvpsKPFk7mEYiGE-27" target="Yg89CHvpsKPFk7mEYiGE-29">
          <mxGeometry relative="1" as="geometry">
            <mxPoint x="432.00000000000006" y="310" as="targetPoint" />
          </mxGeometry>
        </mxCell>
        <mxCell id="Yg89CHvpsKPFk7mEYiGE-37" value="ประเภทขนม(T)" style="edgeLabel;html=1;align=center;verticalAlign=middle;resizable=0;points=[];" vertex="1" connectable="0" parent="Yg89CHvpsKPFk7mEYiGE-36">
          <mxGeometry x="-0.2431" y="1" relative="1" as="geometry">
            <mxPoint as="offset" />
          </mxGeometry>
        </mxCell>
        <mxCell id="Yg89CHvpsKPFk7mEYiGE-27" value="ประเภทขนม?" style="rhombus;whiteSpace=wrap;html=1;" vertex="1" parent="Yg89CHvpsKPFk7mEYiGE-0">
          <mxGeometry x="367.44" y="180" width="140" height="80" as="geometry" />
        </mxCell>
        <mxCell id="Yg89CHvpsKPFk7mEYiGE-39" style="edgeStyle=orthogonalEdgeStyle;rounded=0;orthogonalLoop=1;jettySize=auto;html=1;entryX=0.5;entryY=0;entryDx=0;entryDy=0;" edge="1" parent="Yg89CHvpsKPFk7mEYiGE-0" source="Yg89CHvpsKPFk7mEYiGE-28" target="Yg89CHvpsKPFk7mEYiGE-38">
          <mxGeometry relative="1" as="geometry" />
        </mxCell>
        <mxCell id="Yg89CHvpsKPFk7mEYiGE-40" value="ประเภทน้ำ(T)" style="edgeLabel;html=1;align=center;verticalAlign=middle;resizable=0;points=[];" vertex="1" connectable="0" parent="Yg89CHvpsKPFk7mEYiGE-39">
          <mxGeometry x="-0.1636" y="-1" relative="1" as="geometry">
            <mxPoint as="offset" />
          </mxGeometry>
        </mxCell>
        <mxCell id="Yg89CHvpsKPFk7mEYiGE-41" style="edgeStyle=orthogonalEdgeStyle;rounded=0;orthogonalLoop=1;jettySize=auto;html=1;entryX=1;entryY=0.5;entryDx=0;entryDy=0;" edge="1" parent="Yg89CHvpsKPFk7mEYiGE-0" source="Yg89CHvpsKPFk7mEYiGE-28" target="Yg89CHvpsKPFk7mEYiGE-42">
          <mxGeometry relative="1" as="geometry">
            <mxPoint x="680" y="60" as="targetPoint" />
            <Array as="points">
              <mxPoint x="715" y="90" />
            </Array>
          </mxGeometry>
        </mxCell>
        <mxCell id="Yg89CHvpsKPFk7mEYiGE-44" value="ไม่ใช่ประเภทน้ำ(F)" style="edgeLabel;html=1;align=center;verticalAlign=middle;resizable=0;points=[];" vertex="1" connectable="0" parent="Yg89CHvpsKPFk7mEYiGE-41">
          <mxGeometry x="0.1337" relative="1" as="geometry">
            <mxPoint as="offset" />
          </mxGeometry>
        </mxCell>
        <mxCell id="Yg89CHvpsKPFk7mEYiGE-28" value="ประเภทน้ำ" style="rhombus;whiteSpace=wrap;html=1;" vertex="1" parent="Yg89CHvpsKPFk7mEYiGE-0">
          <mxGeometry x="634.56" y="180" width="140" height="80" as="geometry" />
        </mxCell>
        <mxCell id="Yg89CHvpsKPFk7mEYiGE-49" style="edgeStyle=orthogonalEdgeStyle;rounded=0;orthogonalLoop=1;jettySize=auto;html=1;entryX=0.5;entryY=0;entryDx=0;entryDy=0;" edge="1" parent="Yg89CHvpsKPFk7mEYiGE-0" source="Yg89CHvpsKPFk7mEYiGE-29" target="Yg89CHvpsKPFk7mEYiGE-46">
          <mxGeometry relative="1" as="geometry" />
        </mxCell>
        <mxCell id="Yg89CHvpsKPFk7mEYiGE-29" value="เติมสต็อก" style="rounded=0;whiteSpace=wrap;html=1;" vertex="1" parent="Yg89CHvpsKPFk7mEYiGE-0">
          <mxGeometry x="352.44" y="310" width="170" height="40" as="geometry" />
        </mxCell>
        <mxCell id="Yg89CHvpsKPFk7mEYiGE-33" style="edgeStyle=orthogonalEdgeStyle;rounded=0;orthogonalLoop=1;jettySize=auto;html=1;entryX=0.5;entryY=0;entryDx=0;entryDy=0;" edge="1" parent="Yg89CHvpsKPFk7mEYiGE-0" source="Yg89CHvpsKPFk7mEYiGE-30" target="Yg89CHvpsKPFk7mEYiGE-27">
          <mxGeometry relative="1" as="geometry" />
        </mxCell>
        <mxCell id="Yg89CHvpsKPFk7mEYiGE-30" value="รับค่าสินค้าที่จะเติมของ" style="shape=parallelogram;perimeter=parallelogramPerimeter;whiteSpace=wrap;html=1;fixedSize=1;fontFamily=Sarabun;fontSource=https%3A%2F%2Ffonts.googleapis.com%2Fcss%3Ffamily%3DSarabun;" vertex="1" parent="Yg89CHvpsKPFk7mEYiGE-0">
          <mxGeometry x="358.94" y="120" width="157" height="30" as="geometry" />
        </mxCell>
        <mxCell id="Yg89CHvpsKPFk7mEYiGE-48" style="edgeStyle=orthogonalEdgeStyle;rounded=0;orthogonalLoop=1;jettySize=auto;html=1;entryX=1;entryY=0.5;entryDx=0;entryDy=0;" edge="1" parent="Yg89CHvpsKPFk7mEYiGE-0" source="Yg89CHvpsKPFk7mEYiGE-38" target="Yg89CHvpsKPFk7mEYiGE-46">
          <mxGeometry relative="1" as="geometry">
            <Array as="points">
              <mxPoint x="704.56" y="470" />
            </Array>
          </mxGeometry>
        </mxCell>
        <mxCell id="Yg89CHvpsKPFk7mEYiGE-38" value="เติมสต็อก" style="rounded=0;whiteSpace=wrap;html=1;" vertex="1" parent="Yg89CHvpsKPFk7mEYiGE-0">
          <mxGeometry x="619.56" y="310" width="170" height="40" as="geometry" />
        </mxCell>
        <mxCell id="Yg89CHvpsKPFk7mEYiGE-43" value="" style="edgeStyle=orthogonalEdgeStyle;rounded=0;orthogonalLoop=1;jettySize=auto;html=1;entryX=0.5;entryY=0;entryDx=0;entryDy=0;" edge="1" parent="Yg89CHvpsKPFk7mEYiGE-0" source="Yg89CHvpsKPFk7mEYiGE-2" target="Yg89CHvpsKPFk7mEYiGE-42">
          <mxGeometry relative="1" as="geometry">
            <mxPoint x="-443" y="2370" as="sourcePoint" />
            <mxPoint x="-443" y="2410" as="targetPoint" />
          </mxGeometry>
        </mxCell>
        <mxCell id="Yg89CHvpsKPFk7mEYiGE-42" value="" style="ellipse;whiteSpace=wrap;html=1;aspect=fixed;" vertex="1" parent="Yg89CHvpsKPFk7mEYiGE-0">
          <mxGeometry x="427.44" y="80" width="20" height="20" as="geometry" />
        </mxCell>
        <mxCell id="Yg89CHvpsKPFk7mEYiGE-167" style="edgeStyle=orthogonalEdgeStyle;rounded=0;orthogonalLoop=1;jettySize=auto;html=1;entryX=0.5;entryY=0;entryDx=0;entryDy=0;" edge="1" parent="Yg89CHvpsKPFk7mEYiGE-0" source="Yg89CHvpsKPFk7mEYiGE-45" target="Yg89CHvpsKPFk7mEYiGE-166">
          <mxGeometry relative="1" as="geometry" />
        </mxCell>
        <mxCell id="Yg89CHvpsKPFk7mEYiGE-45" value="อัพเดทจำนวนสินค้าทั้งหมด" style="rounded=0;whiteSpace=wrap;html=1;" vertex="1" parent="Yg89CHvpsKPFk7mEYiGE-0">
          <mxGeometry x="353.5" y="510" width="170" height="40" as="geometry" />
        </mxCell>
        <mxCell id="Yg89CHvpsKPFk7mEYiGE-50" style="edgeStyle=orthogonalEdgeStyle;rounded=0;orthogonalLoop=1;jettySize=auto;html=1;" edge="1" parent="Yg89CHvpsKPFk7mEYiGE-0" source="Yg89CHvpsKPFk7mEYiGE-46" target="Yg89CHvpsKPFk7mEYiGE-45">
          <mxGeometry relative="1" as="geometry" />
        </mxCell>
        <mxCell id="Yg89CHvpsKPFk7mEYiGE-46" value="" style="ellipse;whiteSpace=wrap;html=1;aspect=fixed;" vertex="1" parent="Yg89CHvpsKPFk7mEYiGE-0">
          <mxGeometry x="427.44" y="460" width="20" height="20" as="geometry" />
        </mxCell>
        <mxCell id="Yg89CHvpsKPFk7mEYiGE-155" style="edgeStyle=orthogonalEdgeStyle;rounded=0;orthogonalLoop=1;jettySize=auto;html=1;entryX=0.5;entryY=0;entryDx=0;entryDy=0;" edge="1" parent="Yg89CHvpsKPFk7mEYiGE-0" source="Yg89CHvpsKPFk7mEYiGE-137" target="Yg89CHvpsKPFk7mEYiGE-154">
          <mxGeometry relative="1" as="geometry" />
        </mxCell>
        <mxCell id="Yg89CHvpsKPFk7mEYiGE-137" value="&lt;span style=&quot;color: rgb(18, 18, 18); font-family: Sarabun; font-weight: 700; text-wrap-mode: nowrap;&quot;&gt;ฟังก์ชันสรุปยอดเงินในเครื่อง&lt;/span&gt;" style="shape=process;whiteSpace=wrap;html=1;backgroundOutline=1;fillColor=#d80073;fontColor=#ffffff;strokeColor=#A50040;" vertex="1" parent="Yg89CHvpsKPFk7mEYiGE-0">
          <mxGeometry x="89.5" y="430" width="195" height="30" as="geometry" />
        </mxCell>
        <mxCell id="Yg89CHvpsKPFk7mEYiGE-139" style="edgeStyle=orthogonalEdgeStyle;rounded=0;orthogonalLoop=1;jettySize=auto;html=1;entryX=0;entryY=0.5;entryDx=0;entryDy=0;" edge="1" parent="Yg89CHvpsKPFk7mEYiGE-0" source="Yg89CHvpsKPFk7mEYiGE-138" target="Yg89CHvpsKPFk7mEYiGE-27">
          <mxGeometry relative="1" as="geometry" />
        </mxCell>
        <mxCell id="Yg89CHvpsKPFk7mEYiGE-140" value="ต้องการเติมสต็อก(T)" style="edgeLabel;html=1;align=center;verticalAlign=middle;resizable=0;points=[];" vertex="1" connectable="0" parent="Yg89CHvpsKPFk7mEYiGE-139">
          <mxGeometry x="-0.4847" y="-1" relative="1" as="geometry">
            <mxPoint x="22" y="-1" as="offset" />
          </mxGeometry>
        </mxCell>
        <mxCell id="Yg89CHvpsKPFk7mEYiGE-147" style="edgeStyle=orthogonalEdgeStyle;rounded=0;orthogonalLoop=1;jettySize=auto;html=1;entryX=0.5;entryY=0;entryDx=0;entryDy=0;" edge="1" parent="Yg89CHvpsKPFk7mEYiGE-0" source="Yg89CHvpsKPFk7mEYiGE-138" target="Yg89CHvpsKPFk7mEYiGE-141">
          <mxGeometry relative="1" as="geometry" />
        </mxCell>
        <mxCell id="Yg89CHvpsKPFk7mEYiGE-148" value="ไม่ต้องการเติมสต็อก(F)" style="edgeLabel;html=1;align=center;verticalAlign=middle;resizable=0;points=[];" vertex="1" connectable="0" parent="Yg89CHvpsKPFk7mEYiGE-147">
          <mxGeometry x="-0.1593" y="1" relative="1" as="geometry">
            <mxPoint as="offset" />
          </mxGeometry>
        </mxCell>
        <mxCell id="Yg89CHvpsKPFk7mEYiGE-138" value="เติมสต็อก?" style="rhombus;whiteSpace=wrap;html=1;" vertex="1" parent="Yg89CHvpsKPFk7mEYiGE-0">
          <mxGeometry x="117" y="180" width="140" height="80" as="geometry" />
        </mxCell>
        <mxCell id="Yg89CHvpsKPFk7mEYiGE-144" style="edgeStyle=orthogonalEdgeStyle;rounded=0;orthogonalLoop=1;jettySize=auto;html=1;entryX=0;entryY=0.5;entryDx=0;entryDy=0;" edge="1" parent="Yg89CHvpsKPFk7mEYiGE-0" source="Yg89CHvpsKPFk7mEYiGE-141" target="Yg89CHvpsKPFk7mEYiGE-42">
          <mxGeometry relative="1" as="geometry">
            <mxPoint x="37" y="240" as="targetPoint" />
            <Array as="points">
              <mxPoint x="27" y="345" />
              <mxPoint x="27" y="90" />
            </Array>
          </mxGeometry>
        </mxCell>
        <mxCell id="Yg89CHvpsKPFk7mEYiGE-145" value="ไม่ต้องการเติมเหรียญ/ธนบัตร(F)" style="edgeLabel;html=1;align=center;verticalAlign=middle;resizable=0;points=[];" vertex="1" connectable="0" parent="Yg89CHvpsKPFk7mEYiGE-144">
          <mxGeometry x="-0.7951" y="2" relative="1" as="geometry">
            <mxPoint x="-4" y="-2" as="offset" />
          </mxGeometry>
        </mxCell>
        <mxCell id="Yg89CHvpsKPFk7mEYiGE-149" style="edgeStyle=orthogonalEdgeStyle;rounded=0;orthogonalLoop=1;jettySize=auto;html=1;entryX=0.5;entryY=0;entryDx=0;entryDy=0;" edge="1" parent="Yg89CHvpsKPFk7mEYiGE-0" source="Yg89CHvpsKPFk7mEYiGE-141" target="Yg89CHvpsKPFk7mEYiGE-137">
          <mxGeometry relative="1" as="geometry" />
        </mxCell>
        <mxCell id="Yg89CHvpsKPFk7mEYiGE-150" value="ต้องการเติมเหรียญ/ธนบัตร(T)" style="edgeLabel;html=1;align=center;verticalAlign=middle;resizable=0;points=[];" vertex="1" connectable="0" parent="Yg89CHvpsKPFk7mEYiGE-149">
          <mxGeometry x="-0.1717" y="-1" relative="1" as="geometry">
            <mxPoint as="offset" />
          </mxGeometry>
        </mxCell>
        <mxCell id="Yg89CHvpsKPFk7mEYiGE-141" value="เติมเหรียญ/ธนบัตร?" style="rhombus;whiteSpace=wrap;html=1;" vertex="1" parent="Yg89CHvpsKPFk7mEYiGE-0">
          <mxGeometry x="117" y="305" width="140" height="80" as="geometry" />
        </mxCell>
        <mxCell id="Yg89CHvpsKPFk7mEYiGE-157" style="edgeStyle=orthogonalEdgeStyle;rounded=0;orthogonalLoop=1;jettySize=auto;html=1;entryX=0.5;entryY=0;entryDx=0;entryDy=0;" edge="1" parent="Yg89CHvpsKPFk7mEYiGE-0" source="Yg89CHvpsKPFk7mEYiGE-154" target="Yg89CHvpsKPFk7mEYiGE-156">
          <mxGeometry relative="1" as="geometry" />
        </mxCell>
        <mxCell id="Yg89CHvpsKPFk7mEYiGE-154" value="รับค่าเหรียญเเละธนบัตรที่เหลือในตู้" style="shape=parallelogram;perimeter=parallelogramPerimeter;whiteSpace=wrap;html=1;fixedSize=1;fontFamily=Sarabun;fontSource=https%3A%2F%2Ffonts.googleapis.com%2Fcss%3Ffamily%3DSarabun;" vertex="1" parent="Yg89CHvpsKPFk7mEYiGE-0">
          <mxGeometry x="73.5" y="490" width="227" height="30" as="geometry" />
        </mxCell>
        <mxCell id="Yg89CHvpsKPFk7mEYiGE-165" style="edgeStyle=orthogonalEdgeStyle;rounded=0;orthogonalLoop=1;jettySize=auto;html=1;entryX=0;entryY=0.5;entryDx=0;entryDy=0;" edge="1" parent="Yg89CHvpsKPFk7mEYiGE-0" source="Yg89CHvpsKPFk7mEYiGE-156" target="Yg89CHvpsKPFk7mEYiGE-166">
          <mxGeometry relative="1" as="geometry">
            <mxPoint x="417" y="570" as="targetPoint" />
            <Array as="points">
              <mxPoint x="187" y="600" />
              <mxPoint x="427" y="600" />
            </Array>
          </mxGeometry>
        </mxCell>
        <mxCell id="Yg89CHvpsKPFk7mEYiGE-156" value="เติมเหรียญเเละธนบัตร" style="rounded=0;whiteSpace=wrap;html=1;" vertex="1" parent="Yg89CHvpsKPFk7mEYiGE-0">
          <mxGeometry x="102" y="550" width="170" height="40" as="geometry" />
        </mxCell>
        <mxCell id="Yg89CHvpsKPFk7mEYiGE-168" style="edgeStyle=orthogonalEdgeStyle;rounded=0;orthogonalLoop=1;jettySize=auto;html=1;entryX=0.5;entryY=0;entryDx=0;entryDy=0;" edge="1" parent="Yg89CHvpsKPFk7mEYiGE-0" source="Yg89CHvpsKPFk7mEYiGE-166" target="Yg89CHvpsKPFk7mEYiGE-3">
          <mxGeometry relative="1" as="geometry" />
        </mxCell>
        <mxCell id="Yg89CHvpsKPFk7mEYiGE-166" value="" style="ellipse;whiteSpace=wrap;html=1;aspect=fixed;" vertex="1" parent="Yg89CHvpsKPFk7mEYiGE-0">
          <mxGeometry x="428.5" y="590" width="20" height="20" as="geometry" />
        </mxCell>
        <mxCell id="Yg89CHvpsKPFk7mEYiGE-78" value="ฟังก์ชันสรุปยอดเงินในเครื่อง" style="swimlane;fontFamily=Sarabun;fontSource=https%3A%2F%2Ffonts.googleapis.com%2Fcss%3Ffamily%3DSarabun;fillColor=#d80073;strokeColor=#A50040;fontColor=#ffffff;" vertex="1" parent="WIyWlLk6GJQsqaUBKTNV-1">
          <mxGeometry x="-1330" y="600" width="410" height="570" as="geometry" />
        </mxCell>
        <mxCell id="Yg89CHvpsKPFk7mEYiGE-122" style="edgeStyle=orthogonalEdgeStyle;rounded=0;orthogonalLoop=1;jettySize=auto;html=1;" edge="1" parent="Yg89CHvpsKPFk7mEYiGE-78" source="Yg89CHvpsKPFk7mEYiGE-79" target="Yg89CHvpsKPFk7mEYiGE-120">
          <mxGeometry relative="1" as="geometry" />
        </mxCell>
        <mxCell id="Yg89CHvpsKPFk7mEYiGE-79" value="&lt;font data-font-src=&quot;https://fonts.googleapis.com/css?family=Sarabun&quot; face=&quot;Sarabun&quot;&gt;เริ่มต้น&lt;/font&gt;" style="ellipse;whiteSpace=wrap;html=1;" vertex="1" parent="Yg89CHvpsKPFk7mEYiGE-78">
          <mxGeometry x="140" y="30" width="130" height="30" as="geometry" />
        </mxCell>
        <mxCell id="Yg89CHvpsKPFk7mEYiGE-80" value="&lt;font face=&quot;Sarabun&quot;&gt;สิ้นสุด&lt;/font&gt;" style="ellipse;whiteSpace=wrap;html=1;" vertex="1" parent="Yg89CHvpsKPFk7mEYiGE-78">
          <mxGeometry x="140" y="510" width="130" height="30" as="geometry" />
        </mxCell>
        <mxCell id="Yg89CHvpsKPFk7mEYiGE-126" style="edgeStyle=orthogonalEdgeStyle;rounded=0;orthogonalLoop=1;jettySize=auto;html=1;entryX=0.5;entryY=0;entryDx=0;entryDy=0;" edge="1" parent="Yg89CHvpsKPFk7mEYiGE-78" source="Yg89CHvpsKPFk7mEYiGE-117" target="Yg89CHvpsKPFk7mEYiGE-118">
          <mxGeometry relative="1" as="geometry" />
        </mxCell>
        <mxCell id="Yg89CHvpsKPFk7mEYiGE-117" value="&lt;span style=&quot;font-family: Sarabun; font-size: 14px; text-align: left; text-wrap-mode: nowrap;&quot;&gt;สรุปประเภทเหรียญว่าเหลือเท่าไหร่&lt;/span&gt;" style="rounded=0;whiteSpace=wrap;html=1;" vertex="1" parent="Yg89CHvpsKPFk7mEYiGE-78">
          <mxGeometry x="100" y="210" width="210" height="35" as="geometry" />
        </mxCell>
        <mxCell id="Yg89CHvpsKPFk7mEYiGE-128" style="edgeStyle=orthogonalEdgeStyle;rounded=0;orthogonalLoop=1;jettySize=auto;html=1;entryX=0.5;entryY=0;entryDx=0;entryDy=0;" edge="1" parent="Yg89CHvpsKPFk7mEYiGE-78" source="Yg89CHvpsKPFk7mEYiGE-118" target="Yg89CHvpsKPFk7mEYiGE-127">
          <mxGeometry relative="1" as="geometry" />
        </mxCell>
        <mxCell id="Yg89CHvpsKPFk7mEYiGE-118" value="&lt;span style=&quot;font-family: Sarabun; font-size: 14px; text-align: left; text-wrap-mode: nowrap;&quot;&gt;สรุปประเภทธนบัตรว่าเหลือเท่าไหร่&lt;/span&gt;" style="rounded=0;whiteSpace=wrap;html=1;" vertex="1" parent="Yg89CHvpsKPFk7mEYiGE-78">
          <mxGeometry x="100" y="280" width="210" height="35" as="geometry" />
        </mxCell>
        <mxCell id="Yg89CHvpsKPFk7mEYiGE-123" style="edgeStyle=orthogonalEdgeStyle;rounded=0;orthogonalLoop=1;jettySize=auto;html=1;entryX=0.5;entryY=0;entryDx=0;entryDy=0;" edge="1" parent="Yg89CHvpsKPFk7mEYiGE-78" source="Yg89CHvpsKPFk7mEYiGE-120" target="Yg89CHvpsKPFk7mEYiGE-121">
          <mxGeometry relative="1" as="geometry" />
        </mxCell>
        <mxCell id="Yg89CHvpsKPFk7mEYiGE-120" value="รับค่าเหรียญทั้งหมดในเครื่อง" style="shape=parallelogram;perimeter=parallelogramPerimeter;whiteSpace=wrap;html=1;fixedSize=1;fontFamily=Sarabun;fontSource=https%3A%2F%2Ffonts.googleapis.com%2Fcss%3Ffamily%3DSarabun;" vertex="1" parent="Yg89CHvpsKPFk7mEYiGE-78">
          <mxGeometry x="115" y="90" width="180" height="30" as="geometry" />
        </mxCell>
        <mxCell id="Yg89CHvpsKPFk7mEYiGE-124" style="edgeStyle=orthogonalEdgeStyle;rounded=0;orthogonalLoop=1;jettySize=auto;html=1;entryX=0.5;entryY=0;entryDx=0;entryDy=0;" edge="1" parent="Yg89CHvpsKPFk7mEYiGE-78" source="Yg89CHvpsKPFk7mEYiGE-121" target="Yg89CHvpsKPFk7mEYiGE-117">
          <mxGeometry relative="1" as="geometry" />
        </mxCell>
        <mxCell id="Yg89CHvpsKPFk7mEYiGE-121" value="รับค่าธนบัตรทั้งหมดในเครื่อง" style="shape=parallelogram;perimeter=parallelogramPerimeter;whiteSpace=wrap;html=1;fixedSize=1;fontFamily=Sarabun;fontSource=https%3A%2F%2Ffonts.googleapis.com%2Fcss%3Ffamily%3DSarabun;" vertex="1" parent="Yg89CHvpsKPFk7mEYiGE-78">
          <mxGeometry x="115" y="150" width="180" height="30" as="geometry" />
        </mxCell>
        <mxCell id="Yg89CHvpsKPFk7mEYiGE-130" style="edgeStyle=orthogonalEdgeStyle;rounded=0;orthogonalLoop=1;jettySize=auto;html=1;" edge="1" parent="Yg89CHvpsKPFk7mEYiGE-78" source="Yg89CHvpsKPFk7mEYiGE-127" target="Yg89CHvpsKPFk7mEYiGE-129">
          <mxGeometry relative="1" as="geometry" />
        </mxCell>
        <mxCell id="Yg89CHvpsKPFk7mEYiGE-127" value="&lt;span style=&quot;font-family: Sarabun; font-size: 14px; text-align: left; text-wrap-mode: nowrap;&quot;&gt;สรุปเหรียญเเละธนบัตรว่าเหลืออย่างละเท่าไหร่?&lt;/span&gt;" style="rounded=0;whiteSpace=wrap;html=1;" vertex="1" parent="Yg89CHvpsKPFk7mEYiGE-78">
          <mxGeometry x="65" y="360" width="280" height="35" as="geometry" />
        </mxCell>
        <mxCell id="Yg89CHvpsKPFk7mEYiGE-131" style="edgeStyle=orthogonalEdgeStyle;rounded=0;orthogonalLoop=1;jettySize=auto;html=1;entryX=0.5;entryY=0;entryDx=0;entryDy=0;" edge="1" parent="Yg89CHvpsKPFk7mEYiGE-78" source="Yg89CHvpsKPFk7mEYiGE-129" target="Yg89CHvpsKPFk7mEYiGE-80">
          <mxGeometry relative="1" as="geometry" />
        </mxCell>
        <mxCell id="Yg89CHvpsKPFk7mEYiGE-129" value="เเสดงค่าเหรียญเเละธนบัตรที่เหลือในตู้ใน Mode Admin" style="shape=parallelogram;perimeter=parallelogramPerimeter;whiteSpace=wrap;html=1;fixedSize=1;fontFamily=Sarabun;fontSource=https%3A%2F%2Ffonts.googleapis.com%2Fcss%3Ffamily%3DSarabun;" vertex="1" parent="Yg89CHvpsKPFk7mEYiGE-78">
          <mxGeometry x="47.5" y="430" width="315" height="30" as="geometry" />
        </mxCell>
      </root>
    </mxGraphModel>
  </diagram>
</mxfile>
